<?xml version="1.0" encoding="utf-8"?>
<!-- Generator: Adobe Illustrator 27.6.1, SVG Export Plug-In . SVG Version: 6.00 Build 0)  -->
<svg version="1.1" id="Layer_1" xmlns="http://www.w3.org/2000/svg" xmlns:xlink="http://www.w3.org/1999/xlink" x="0px" y="0px"
	 width="30px" height="30px" viewBox="0 0 30 30" style="enable-background:new 0 0 30 30;" xml:space="preserve">
<style type="text/css">
	.st0{fill:#FFFFFF;}
</style>
<g>
	<path class="st0" d="M20.2,29.1c-0.1-0.2-0.3-0.4-0.4-0.6c0,0,0,0,0-0.1c-0.3-0.7-0.4-1.5-0.2-2.3c0-0.1,0.1-0.2,0.1-0.3
		c0,0,0,0,0-0.1c0.1-0.2,0.3-0.5,0.4-0.7c0,0,0,0,0,0c0.4-0.5,0.9-0.7,1.4-0.9c0,0,0-0.1,0-0.1c-2.6,0-5.2,0-7.7,0
		c-0.1,0-0.1,0-0.2,0c0,0,0,0,0,0c0.1,0,0.1,0,0.2,0c0.7,0.2,1.3,0.6,1.6,1.3c0.2,0.4,0.3,0.9,0.4,1.4c0.1,1-0.2,1.8-0.8,2.4
		c-0.9,1-2.5,1-3.5,0c-1.2-1.2-1.2-3.3-0.1-4.5c0.1-0.1,0.2-0.1,0.2-0.2c0,0,0,0,0.1-0.1c0.3-0.2,0.7-0.4,1-0.5c-0.6,0-1.3,0-1.9,0
		c-1,0-1.6-0.5-2.2-1.4c-0.3-0.5-0.4-1.1-0.4-1.7c0-0.5,0.1-1,0.3-1.4c0.3-0.5,0.2-0.9,0.1-1.3c-0.4-1.5-0.8-3-1.1-4.5
		c-0.2-1-0.5-1.9-0.7-2.9C6.3,9.2,6,7.7,5.6,6.2C5.3,5,5,3.8,4.7,2.7C4.5,2,4.5,2,3.9,2c-1,0-2,0-3,0C0.5,2,0.2,1.8,0.1,1.4
		C-0.1,1,0,0.5,0.3,0.3C0.5,0.1,0.7,0,0.9,0C2.3,0,3.6,0,5,0c0.7,0,0.9,0.1,1.2,1.2c0.2,0.9,0.4,1.7,0.6,2.6C6.8,4,6.9,4.1,7.1,4
		c0.1,0,0.1,0,0.2,0C14.5,4,21.7,4,29,4c0.6,0,0.9,0.3,1,0.9c0,0.2,0,0.5-0.1,0.7C29.4,7.4,29,9.2,28.5,11c-0.7,2.7-1.3,5.4-2,8.1
		c-0.1,0.6-0.6,0.9-1,0.9c-4.9,0-9.8,0-14.7,0c-0.6,0-0.6,0-0.8,0.6c-0.2,0.7,0.3,1.4,0.9,1.4c4.9,0,9.7,0,14.6,0
		c0.5,0,0.9,0.3,1,0.7c0.2,0.8-0.4,1.3-0.9,1.3c-0.8,0-1.7,0-2.6,0c-0.1,0-0.2,0-0.3,0c-0.1,0-0.1,0-0.3,0c0.1,0.1,0.2,0.1,0.3,0.1
		c1.1,0.2,2,1.4,2,2.6c0,1.3-0.4,2.2-1.3,2.8c-0.7,0.4-1.4,0.5-2.1,0.3C20.9,29.7,20.6,29.5,20.2,29.1
		C20.3,29.2,20.2,29.1,20.2,29.1z M13.1,24C13.1,24,13.1,24.1,13.1,24c0.1,0.1,0.1,0.1,0.2,0.1c0,0,0-0.1,0-0.1
		C13.2,24,13.2,24,13.1,24z M22,24C22,24,22,24,22,24C22,24,22,24,22,24C22,24,22,24,22,24C22,24,22,24,22,24z"/>
	<path class="st0" d="M22.7,24.1c-0.1,0-0.1-0.1-0.3-0.1c0.1,0,0.2,0,0.3,0C22.7,24,22.7,24.1,22.7,24.1z"/>
	<path class="st0" d="M13.8,24.1c-0.1,0-0.1,0-0.2,0c0,0,0,0,0,0C13.7,24,13.8,24,13.8,24.1C13.8,24,13.8,24.1,13.8,24.1z"/>
	<path class="st0" d="M11.7,24.5C11.7,24.6,11.7,24.6,11.7,24.5C11.7,24.6,11.7,24.6,11.7,24.5z"/>
	<path class="st0" d="M20.2,24.9C20.2,25,20.1,25,20.2,24.9C20.1,25,20.2,25,20.2,24.9z"/>
	<path class="st0" d="M19.7,25.7C19.7,25.7,19.7,25.8,19.7,25.7C19.7,25.8,19.7,25.7,19.7,25.7z"/>
	<path class="st0" d="M19.8,28.5C19.8,28.5,19.8,28.5,19.8,28.5C19.8,28.5,19.8,28.5,19.8,28.5z"/>
	<path class="st0" d="M20.2,29.1C20.2,29.1,20.3,29.2,20.2,29.1C20.3,29.2,20.2,29.1,20.2,29.1z"/>
	<path class="st0" d="M13.1,24c0.1,0,0.1,0,0.2,0c0,0,0,0.1,0,0.1C13.3,24.1,13.2,24.1,13.1,24C13.1,24.1,13.1,24,13.1,24z"/>
	<path class="st0" d="M22,24C22,24,22,24,22,24C22,24,22,24,22,24C22,24,22,24,22,24C22,24,22,24,22,24z"/>
</g>
</svg>
