<?xml version="1.0" encoding="utf-8"?>
<!-- Generator: Adobe Illustrator 27.6.1, SVG Export Plug-In . SVG Version: 6.00 Build 0)  -->
<svg version="1.1" id="Layer_1" xmlns="http://www.w3.org/2000/svg" xmlns:xlink="http://www.w3.org/1999/xlink" x="0px" y="0px"
	 width="30px" height="30px" viewBox="0 0 30 30" style="enable-background:new 0 0 30 30;" xml:space="preserve">
<style type="text/css">
	.st0{fill:#D70567;}
</style>
<path class="st0" d="M7.4,17.9c-0.1-0.3-0.2-0.7-0.2-1c0-0.2-0.1-0.5-0.1-0.7C7,16,7,15.8,6.9,15.6c0-0.1,0-0.1,0-0.2c0,0,0,0,0-0.1
	c0-0.1-0.1-0.3-0.1-0.4c-0.1-0.3-0.1-0.5-0.2-0.8c0-0.2-0.1-0.5-0.1-0.7c-0.1-0.2-0.1-0.4-0.2-0.6c0-0.1,0-0.2-0.1-0.4
	c0,0,0-0.1,0-0.1c0-0.1,0-0.1,0-0.2c-0.1-0.3-0.1-0.6-0.2-0.9c0-0.1,0-0.3-0.1-0.4c-0.1-0.3-0.2-0.6-0.2-0.9c0-0.2-0.1-0.5-0.1-0.7
	C5.5,8.9,5.4,8.7,5.4,8.5c0-0.2-0.1-0.5-0.1-0.7C5.2,7.6,5.1,7.3,5,7C5,6.8,5,6.5,4.9,6.3C4.9,6.1,4.8,5.8,4.7,5.6
	c0-0.2-0.1-0.5-0.1-0.7C4.6,4.7,4.5,4.5,4.5,4.3c0-0.2-0.1-0.5-0.1-0.7c0-0.2-0.1-0.3-0.3-0.3c-0.9,0-1.8,0-2.7,0
	C1.2,3.3,1.1,3.3,1,3.2C0.9,3.1,0.8,3,0.7,2.9C0.6,2.8,0.6,2.6,0.5,2.5c0-0.4,0-0.7,0.2-1C0.9,1.2,1.1,1,1.5,1c1.2,0,2.5,0,3.7,0
	c0.2,0,0.5,0.2,0.7,0.3C6,1.7,6.2,2.1,6.3,2.5C6.4,2.7,6.5,3,6.5,3.2C6.6,3.5,6.6,3.7,6.7,4c0,0.2,0.1,0.4,0.1,0.6
	c0,0.1,0,0.2,0.1,0.4c0,0,0,0.1,0,0.1c0,0.1,0,0.1,0,0.2C7,5.6,7.1,5.8,7.1,6.1c0,0,0,0,0,0.1c0,0.2,0.1,0.3,0.2,0.2
	c0.1,0,0.2,0,0.3,0c6.8,0,13.6,0,20.3,0c0.3,0,0.6,0.1,0.9,0.2c0.1,0.1,0.3,0.3,0.4,0.4c0.2,0.5,0.1,1,0,1.5c0,0.1-0.1,0.2-0.1,0.3
	c-0.2,0.7-0.3,1.4-0.5,2.1c-0.2,1.1-0.5,2.2-0.7,3.3c0,0.1-0.1,0.3-0.1,0.4c-0.2,0.8-0.3,1.6-0.5,2.4c-0.2,0.9-0.4,1.8-0.6,2.7
	c-0.2,0.2-0.4,0.5-0.6,0.7c-0.2,0-0.4,0.1-0.7,0.1c-4,0-8.1,0-12.1,0c-1.5,0-3,0-4.5,0c-0.1,0-0.1,0-0.2,0c-0.2-0.1-0.4-0.1-0.6-0.2
	C8.1,20.2,8,20,7.8,19.8c0-0.1,0-0.2-0.1-0.4c0,0,0-0.1,0-0.1c0,0,0-0.1,0-0.1c-0.1-0.3-0.1-0.6-0.2-0.9c0,0,0-0.1,0-0.1
	C7.5,18.1,7.4,18,7.4,17.9z M24.9,18.1c0.1-0.3,0.2-0.7,0.2-1c0.3-1.2,0.5-2.5,0.8-3.7c0.3-1.5,0.7-3.1,1-4.6c-6.5,0-12.9,0-19.3,0
	c0.2,0.8,0.4,1.7,0.6,2.5c0.3,1.2,0.5,2.5,0.8,3.7c0.2,0.9,0.4,1.9,0.6,2.8c0.1,0.3,0.1,0.4,0.4,0.4c4.9,0,9.7,0,14.6,0
	C24.7,18.2,24.8,18.2,24.9,18.1C24.9,18.2,24.9,18.2,24.9,18.1z"/>
<path class="st0" d="M7.3,26.8c0-0.4-0.1-0.7-0.1-1.1c0-0.1,0-0.2,0-0.3c0-0.2,0-0.4,0.1-0.6c0.1-0.1,0.1-0.3,0.2-0.4
	c0.1-0.2,0.3-0.5,0.4-0.7C7.9,23.6,8,23.5,8,23.4c0.2-0.2,0.3-0.3,0.5-0.5c0,0,0,0,0.1,0c0,0,0,0,0.1-0.1c0.1-0.1,0.2-0.1,0.3-0.2
	c0.3-0.1,0.5-0.3,0.8-0.4c0,0,0,0,0.1,0c0.1,0,0.1,0,0.2,0c0.1,0,0.2,0,0.3,0c0.1,0,0.2,0,0.3-0.1c0,0,0.1,0,0.1,0
	c0.1,0,0.2,0,0.3,0c0.1,0,0.1,0,0.2,0c0.1,0,0.2,0,0.2,0.1c0.3,0.1,0.5,0.1,0.8,0.2c0.3,0.2,0.6,0.3,0.8,0.5l0,0
	c0.3,0.3,0.5,0.5,0.8,0.8c0.1,0.2,0.2,0.3,0.3,0.5c0.1,0.2,0.1,0.3,0.2,0.5c0,0.4,0.1,0.9,0.1,1.3c0,0.3-0.1,0.7-0.2,1
	c-0.4,0.9-1,1.6-1.9,2c-0.1,0-0.2,0.1-0.3,0.1c-0.3,0.1-0.6,0.1-1,0.2c-0.2,0-0.3,0-0.5,0c0,0-0.1,0-0.1,0c-0.3,0-0.5-0.1-0.8-0.1
	c-0.1,0-0.2-0.1-0.3-0.1C9.3,29.1,9.2,29,9.1,29c0,0-0.1,0-0.1-0.1c0,0,0,0-0.1,0c-0.2-0.1-0.3-0.2-0.5-0.3
	c-0.1-0.1-0.2-0.2-0.3-0.3c-0.2-0.2-0.3-0.5-0.5-0.7c0-0.1-0.1-0.2-0.1-0.3C7.4,27,7.4,26.9,7.3,26.8z M9.4,25.7
	c0,0.8,0.6,1.4,1.3,1.5c0.9,0,1.6-0.6,1.6-1.4c0-0.8-0.5-1.4-1.5-1.4C10.1,24.3,9.4,24.9,9.4,25.7z"/>
<path class="st0" d="M24.5,29.4c-0.2,0-0.5,0-0.7,0c-0.2,0-0.3,0-0.5,0c-0.2,0-0.3-0.1-0.5-0.1c0,0-0.1,0-0.1-0.1
	c-0.1,0-0.2-0.1-0.3-0.1c-0.6-0.3-1.1-0.7-1.5-1.3c0,0-0.1-0.1-0.1-0.1c-0.1-0.2-0.2-0.4-0.3-0.6c-0.3-0.8-0.3-1.7,0-2.5
	c0.3-0.8,0.8-1.4,1.5-1.8c0,0,0,0,0.1,0c0.2-0.1,0.4-0.2,0.6-0.3c0.2-0.1,0.5-0.1,0.7-0.2c0.1,0,0.3,0,0.4,0c0.1,0,0.3,0,0.4,0
	c0.1,0,0.3,0,0.4,0.1c0.1,0,0.1,0,0.2,0c0.1,0,0.3,0.1,0.4,0.1c0.2,0.1,0.4,0.2,0.6,0.3c0.1,0.1,0.3,0.2,0.4,0.3
	c0.1,0,0.1,0.1,0.2,0.1c0.2,0.2,0.3,0.3,0.5,0.5l0,0c0.1,0.1,0.1,0.2,0.2,0.3c0.1,0.2,0.2,0.3,0.3,0.5c0.1,0.2,0.1,0.3,0.2,0.5
	c0,0.2,0.1,0.4,0.1,0.6c0,0.3,0,0.6,0,0.8c0,0.2-0.1,0.3-0.1,0.5c0,0.1-0.1,0.3-0.1,0.4c-0.1,0.1-0.1,0.2-0.2,0.4
	c-0.1,0.2-0.3,0.4-0.4,0.7c-0.1,0.1-0.2,0.2-0.3,0.3c-0.1,0.1-0.2,0.2-0.3,0.3c-0.2,0.1-0.3,0.2-0.5,0.3c-0.2,0.1-0.3,0.1-0.5,0.2
	c-0.1,0-0.1,0-0.2,0.1C24.8,29.3,24.7,29.3,24.5,29.4z M22.6,25.8c-0.1,0.8,0.7,1.5,1.4,1.5c0.9,0,1.5-0.6,1.5-1.4
	c0-0.9-0.6-1.4-1.5-1.4C23.2,24.3,22.5,25,22.6,25.8z"/>
</svg>
