<?xml version="1.0" encoding="utf-8"?>
<!-- Generator: Adobe Illustrator 27.6.1, SVG Export Plug-In . SVG Version: 6.00 Build 0)  -->
<svg version="1.1" id="Layer_1" xmlns="http://www.w3.org/2000/svg" xmlns:xlink="http://www.w3.org/1999/xlink" x="0px" y="0px"
	 width="30px" height="30px" viewBox="0 0 30 30" style="enable-background:new 0 0 30 30;" xml:space="preserve">
<style type="text/css">
	.st0{fill:#FFFFFF;}
</style>
<path class="st0" d="M7.4,17.1c-0.1-0.3-0.2-0.6-0.2-0.9c0-0.2-0.1-0.4-0.1-0.6C7,15.4,7,15.2,6.9,15c0-0.1,0-0.1,0-0.2
	c0,0,0,0,0-0.1c0-0.1-0.1-0.3-0.1-0.4c-0.1-0.2-0.1-0.5-0.2-0.7c0-0.2-0.1-0.5-0.1-0.7c-0.1-0.2-0.1-0.4-0.2-0.6
	c0-0.1,0-0.2-0.1-0.3c0,0,0-0.1,0-0.1c0-0.1,0-0.1,0-0.2C6.1,11.5,6,11.3,5.9,11c0-0.1,0-0.3-0.1-0.4c-0.1-0.3-0.2-0.5-0.2-0.8
	c0-0.2-0.1-0.4-0.1-0.6C5.5,9,5.4,8.8,5.4,8.6c0-0.2-0.1-0.4-0.1-0.6C5.2,7.8,5.1,7.5,5,7.3C5,7,5,6.8,4.9,6.6
	C4.9,6.4,4.8,6.2,4.7,6c0-0.2-0.1-0.4-0.1-0.6C4.6,5.2,4.5,5,4.5,4.8c0-0.2-0.1-0.4-0.1-0.6C4.3,4,4.2,4,4,4C3.1,4,2.2,4,1.3,4
	C1.2,3.9,1.1,3.9,1,3.8C0.9,3.7,0.8,3.6,0.7,3.5C0.6,3.4,0.6,3.3,0.5,3.2c0-0.3,0-0.6,0.2-0.9C0.9,2,1.1,1.8,1.5,1.8
	c1.2,0,2.5,0,3.7,0C5.4,1.8,5.6,2,5.9,2C6,2.4,6.2,2.8,6.3,3.1c0.1,0.2,0.1,0.5,0.2,0.7c0.1,0.2,0.1,0.5,0.2,0.7
	c0,0.2,0.1,0.3,0.1,0.5c0,0.1,0,0.2,0.1,0.3c0,0,0,0.1,0,0.1c0,0.1,0,0.1,0,0.2C7,5.9,7.1,6.2,7.1,6.5c0,0,0,0,0,0.1
	c0,0.1,0.1,0.2,0.2,0.2c0.1,0,0.2,0,0.3,0c6.8,0,13.6,0,20.3,0c0.3,0,0.6,0.1,0.9,0.1c0.1,0.1,0.3,0.2,0.4,0.3
	c0.2,0.5,0.1,0.9,0,1.4c0,0.1-0.1,0.2-0.1,0.3c-0.2,0.6-0.3,1.3-0.5,1.9c-0.2,1-0.5,2-0.7,3c0,0.1-0.1,0.3-0.1,0.4
	c-0.2,0.7-0.3,1.4-0.5,2.2c-0.2,0.8-0.4,1.6-0.6,2.4c-0.2,0.2-0.4,0.5-0.6,0.7c-0.2,0-0.4,0.1-0.7,0.1c-4,0-8.1,0-12.1,0
	c-1.5,0-3,0-4.5,0c-0.1,0-0.1,0-0.2,0c-0.2-0.1-0.4-0.1-0.6-0.2C8.1,19.2,8,19,7.8,18.8c0-0.1,0-0.2-0.1-0.3c0,0,0-0.1,0-0.1
	c0,0,0-0.1,0-0.1c-0.1-0.3-0.1-0.5-0.2-0.8c0,0,0-0.1,0-0.1C7.5,17.3,7.4,17.2,7.4,17.1z M24.9,17.4c0.1-0.3,0.2-0.6,0.2-0.9
	c0.3-1.1,0.5-2.2,0.8-3.4c0.3-1.4,0.7-2.8,1-4.2c-6.5,0-12.9,0-19.3,0c0.2,0.8,0.4,1.5,0.6,2.3c0.3,1.1,0.5,2.2,0.8,3.4
	c0.2,0.8,0.4,1.7,0.6,2.5c0.1,0.2,0.1,0.3,0.4,0.3c4.9,0,9.7,0,14.6,0C24.7,17.4,24.8,17.4,24.9,17.4C24.9,17.4,24.9,17.4,24.9,17.4
	z"/>
<path class="st0" d="M7.3,25.8c0-0.4-0.1-0.7-0.1-1.1c0-0.1,0-0.2,0-0.3c0-0.2,0-0.4,0.1-0.6c0.1-0.1,0.1-0.3,0.2-0.4
	c0.1-0.2,0.3-0.5,0.4-0.7C7.9,22.6,8,22.5,8,22.4c0.2-0.2,0.3-0.3,0.5-0.5c0,0,0,0,0.1,0c0,0,0,0,0.1-0.1c0.1-0.1,0.2-0.1,0.3-0.2
	c0.3-0.1,0.5-0.3,0.8-0.4c0,0,0,0,0.1,0c0.1,0,0.1,0,0.2,0c0.1,0,0.2,0,0.3,0c0.1,0,0.2,0,0.3-0.1c0,0,0.1,0,0.1,0
	c0.1,0,0.2,0,0.3,0c0.1,0,0.1,0,0.2,0c0.1,0,0.2,0,0.2,0.1c0.3,0.1,0.5,0.1,0.8,0.2c0.3,0.2,0.6,0.3,0.8,0.5l0,0
	c0.3,0.3,0.5,0.5,0.8,0.8c0.1,0.2,0.2,0.3,0.3,0.5c0.1,0.2,0.1,0.3,0.2,0.5c0,0.4,0.1,0.9,0.1,1.3c0,0.3-0.1,0.7-0.2,1
	c-0.4,0.9-1,1.6-1.9,2c-0.1,0-0.2,0.1-0.3,0.1c-0.3,0.1-0.6,0.1-1,0.2c-0.2,0-0.3,0-0.5,0c0,0-0.1,0-0.1,0c-0.3,0-0.5-0.1-0.8-0.1
	c-0.1,0-0.2-0.1-0.3-0.1C9.3,28.1,9.2,28,9.1,28c0,0-0.1,0-0.1-0.1c0,0,0,0-0.1,0c-0.2-0.1-0.3-0.2-0.5-0.3
	c-0.1-0.1-0.2-0.2-0.3-0.3c-0.2-0.2-0.3-0.5-0.5-0.7c0-0.1-0.1-0.2-0.1-0.3C7.4,26,7.4,25.9,7.3,25.8z M9.4,24.7
	c0,0.8,0.6,1.4,1.3,1.5c0.9,0,1.6-0.6,1.6-1.4c0-0.8-0.5-1.4-1.5-1.4C10.1,23.3,9.4,23.9,9.4,24.7z"/>
<path class="st0" d="M24.5,28.4c-0.2,0-0.5,0-0.7,0c-0.2,0-0.3,0-0.5,0c-0.2,0-0.3-0.1-0.5-0.1c0,0-0.1,0-0.1-0.1
	c-0.1,0-0.2-0.1-0.3-0.1c-0.6-0.3-1.1-0.7-1.5-1.3c0,0-0.1-0.1-0.1-0.1c-0.1-0.2-0.2-0.4-0.3-0.6c-0.3-0.8-0.3-1.7,0-2.5
	c0.3-0.8,0.8-1.4,1.5-1.8c0,0,0,0,0.1,0c0.2-0.1,0.4-0.2,0.6-0.3c0.2-0.1,0.5-0.1,0.7-0.2c0.1,0,0.3,0,0.4,0c0.1,0,0.3,0,0.4,0
	c0.1,0,0.3,0,0.4,0.1c0.1,0,0.1,0,0.2,0c0.1,0,0.3,0.1,0.4,0.1c0.2,0.1,0.4,0.2,0.6,0.3c0.1,0.1,0.3,0.2,0.4,0.3
	c0.1,0,0.1,0.1,0.2,0.1c0.2,0.2,0.3,0.3,0.5,0.5l0,0c0.1,0.1,0.1,0.2,0.2,0.3c0.1,0.2,0.2,0.3,0.3,0.5c0.1,0.2,0.1,0.3,0.2,0.5
	c0,0.2,0.1,0.4,0.1,0.6c0,0.3,0,0.6,0,0.8c0,0.2-0.1,0.3-0.1,0.5c0,0.1-0.1,0.3-0.1,0.4c-0.1,0.1-0.1,0.2-0.2,0.4
	c-0.1,0.2-0.3,0.4-0.4,0.7c-0.1,0.1-0.2,0.2-0.3,0.3c-0.1,0.1-0.2,0.2-0.3,0.3c-0.2,0.1-0.3,0.2-0.5,0.3c-0.2,0.1-0.3,0.1-0.5,0.2
	c-0.1,0-0.1,0-0.2,0.1C24.8,28.3,24.7,28.3,24.5,28.4z M22.6,24.8c-0.1,0.8,0.7,1.5,1.4,1.5c0.9,0,1.5-0.6,1.5-1.4
	c0-0.9-0.6-1.4-1.5-1.4C23.2,23.3,22.5,24,22.6,24.8z"/>
</svg>
