<?xml version="1.0" encoding="utf-8"?>
<!-- Generator: Adobe Illustrator 27.6.1, SVG Export Plug-In . SVG Version: 6.00 Build 0)  -->
<svg version="1.1" id="Layer_1" xmlns="http://www.w3.org/2000/svg" xmlns:xlink="http://www.w3.org/1999/xlink" x="0px" y="0px"
	 width="30px" height="20px" viewBox="0 0 30 20" style="enable-background:new 0 0 30 20;" xml:space="preserve">
<style type="text/css">
	.st0{fill:#D71969;}
</style>
<path class="st0" d="M24.3,15.3c0.5,0,1,0,1.4,0c0.1,0,0.1-0.1,0.1-0.2c0-0.9,0-1.7,0-2.6c0-0.4,0-0.9,0-1.3c0-0.2-0.1-0.4-0.2-0.5
	c-0.2-0.3-0.4-0.6-0.7-0.9c-0.1-0.1-0.2-0.3-0.3-0.4c-0.1-0.1-0.1-0.1-0.2-0.1c-2.1,0-4.1,0-6.2,0c-0.3,0-0.5,0-0.7-0.2
	c-0.2-0.2-0.3-0.4-0.3-0.7c0-1.9,0-3.8,0-5.7c0,0,0-0.1,0-0.1c-0.1,0-0.2,0-0.3,0c-4.2,0-8.4,0-12.7,0c-0.2,0-0.3,0-0.5-0.1
	C3.4,2.4,3.3,1.9,3.5,1.5c0.2-0.3,0.4-0.4,0.8-0.4c0.1,0,0.2,0,0.2,0c4.5,0,9,0,13.4,0c0.2,0,0.4,0,0.6,0.1C18.9,1.3,19,1.6,19,2
	c0,0.2,0,0.5,0,0.7c0.1,0,0.1,0,0.2,0c1.1,0,2.1,0,3.2,0c0.3,0,0.5,0.1,0.8,0.3c0.1,0.1,0.2,0.3,0.3,0.4c0.3,0.6,0.6,1.2,0.9,1.8
	c0.2,0.3,0.3,0.6,0.5,1c0.2,0.3,0.3,0.6,0.5,0.9c0.1,0.3,0.3,0.5,0.4,0.8c0.2,0.3,0.4,0.6,0.6,0.9c0.4,0.5,0.7,0.9,1.1,1.4
	c0.1,0.2,0.2,0.4,0.2,0.6c0,1.8,0,3.5,0,5.3c0,0.5-0.2,0.7-0.6,0.9c-0.1,0.1-0.3,0-0.4,0c-0.7,0-1.4,0-2.1,0c-0.2,0-0.2,0-0.3,0.2
	c-0.1,0.5-0.4,0.8-0.7,1.2c-0.4,0.5-1,0.8-1.6,1c-0.5,0.1-1,0.1-1.4,0c-0.2,0-0.4-0.1-0.6-0.2c-0.2-0.1-0.5-0.2-0.7-0.4
	c-0.3-0.2-0.5-0.5-0.8-0.8c-0.2-0.3-0.4-0.6-0.5-0.9c0-0.1-0.1-0.2-0.2-0.2c-1.5,0-3,0-4.5,0c-0.2,0-0.3,0.1-0.3,0.2
	c-0.3,0.9-0.9,1.6-1.8,2c-0.6,0.3-1.3,0.3-2,0.2c-0.7-0.1-1.2-0.5-1.7-0.9c-0.4-0.4-0.7-0.8-0.8-1.4C6.4,17,6.4,17,6.3,17
	c-0.6,0-1.3,0-1.9,0c-0.4,0-0.7-0.1-0.9-0.5c-0.2-0.4,0-0.9,0.4-1.1c0.1-0.1,0.3-0.1,0.4-0.1c0.6,0,1.2,0,1.9,0
	c0.2,0,0.2-0.1,0.2-0.2C6.6,14.7,6.8,14.3,7,14c0.2-0.3,0.6-0.6,0.9-0.8c0.3-0.2,0.6-0.3,0.9-0.4c0.5-0.1,0.9-0.2,1.4-0.1
	c0.3,0.1,0.6,0.2,0.9,0.3c0.3,0.2,0.6,0.4,0.9,0.6c0.4,0.4,0.7,0.9,0.8,1.4c0,0.1,0.1,0.1,0.2,0.1c1.6,0,3.1,0,4.7,0
	c0.1,0,0.1,0,0.2-0.1c0.1-0.3,0.2-0.6,0.4-0.8c0.2-0.4,0.6-0.7,1-1c0.3-0.2,0.6-0.3,0.9-0.4c0.5-0.2,1-0.1,1.5-0.1
	c0.3,0,0.7,0.1,1,0.3c0.3,0.2,0.5,0.3,0.8,0.5c0.3,0.3,0.5,0.6,0.7,0.9c0.1,0.2,0.1,0.4,0.3,0.6C24.4,15.2,24.3,15.2,24.3,15.3z
	 M23.8,7.7c-0.3-0.5-0.5-1-0.8-1.5c-0.3-0.6-0.5-1.1-0.8-1.7c-0.1-0.1-0.1-0.1-0.2-0.1c-0.9,0-1.8,0-2.7,0c0,0-0.1,0-0.2,0
	c0,1.1,0,2.2,0,3.3C20.6,7.7,22.2,7.7,23.8,7.7z M21.1,17.8c0.9,0,1.7-0.7,1.7-1.7c0-1-0.7-1.6-1.6-1.7c-1.1,0-1.7,0.8-1.7,1.6
	C19.4,17,20.1,17.8,21.1,17.8z M9.6,14.5c-1-0.1-1.7,0.8-1.7,1.6c0,0.9,0.7,1.7,1.7,1.7c0.8,0,1.7-0.7,1.7-1.8
	C11.3,15.2,10.6,14.4,9.6,14.5z"/>
<path class="st0" d="M6.8,6.2c-1.2,0-2.4,0-3.7,0C2.9,6.1,2.7,6,2.5,5.7c-0.2-0.3-0.2-0.5,0-0.8c0.1-0.3,0.3-0.4,0.6-0.4
	c0.1,0,0.2,0,0.2,0c2.3,0,4.6,0,6.9,0c0.3,0,0.5,0.1,0.7,0.2c0.2,0.1,0.3,0.6,0.2,0.9c-0.1,0.3-0.3,0.4-0.6,0.5c-0.1,0-0.2,0-0.3,0
	C9.1,6.1,8,6.1,6.8,6.2C6.8,6.1,6.8,6.1,6.8,6.2z"/>
<path class="st0" d="M5.4,9.4c-1.1,0-2.3,0-3.4,0c-0.1,0-0.3,0-0.4,0C1.3,9.3,1,8.9,1,8.5c0-0.3,0.3-0.6,0.6-0.7
	c0.1,0,0.3-0.1,0.4-0.1c2.3,0,4.5,0,6.8,0c0.3,0,0.5,0.1,0.7,0.3c0.2,0.2,0.3,0.5,0.2,0.8C9.7,9.2,9.4,9.4,9,9.4
	C7.8,9.4,6.6,9.4,5.4,9.4z"/>
<path class="st0" d="M5.1,12.7c-0.6,0-1.3,0-1.9,0c-0.5,0-0.8-0.4-0.8-0.9c0-0.4,0.3-0.8,0.7-0.8c0.1,0,0.2,0,0.3,0
	c1.2,0,2.4,0,3.6,0c0.4,0,0.8,0.2,0.9,0.6c0.1,0.2,0,0.6-0.2,0.8c-0.2,0.2-0.4,0.3-0.7,0.3C6.4,12.7,5.7,12.7,5.1,12.7
	C5.1,12.7,5.1,12.7,5.1,12.7z"/>
</svg>
