<?xml version="1.0" encoding="utf-8"?>
<!-- Generator: Adobe Illustrator 27.6.1, SVG Export Plug-In . SVG Version: 6.00 Build 0)  -->
<svg version="1.1" id="Layer_1" xmlns="http://www.w3.org/2000/svg" xmlns:xlink="http://www.w3.org/1999/xlink" x="0px" y="0px"
	 width="30px" height="30px" viewBox="0 0 30 30" style="enable-background:new 0 0 30 30;" xml:space="preserve">
<style type="text/css">
	.st0{fill:#FFFFFF;}
</style>
<g>
	<path class="st0" d="M2.2,22.6c0.3-0.1,0.6-0.2,1-0.2c6.3,0,12.6,0,18.9,0c1.6,0,3.3,0,4.9,0c0.8,0,1.6,0.6,1.8,1.3
		c0.4,1.2-0.7,2.4-1.7,2.4c-6.4,0-12.9,0-19.3,0c-1.6,0-3.3,0-4.9,0c-0.7,0-1.3-0.6-1.5-1.1c-0.3-0.9-0.1-1.8,0.8-2.3
		C2.1,22.6,2.2,22.6,2.2,22.6z"/>
	<path class="st0" d="M15,16.8c-4.1,0-8.1,0-12.2,0c-0.6,0-1.3-0.6-1.5-1.1c-0.5-1.4,0.5-2.6,1.8-2.6c8,0,15.9,0,23.9,0
		c1,0,1.9,0.8,1.9,1.8c0.1,1-0.8,1.9-1.7,1.9C23.1,16.8,19,16.8,15,16.8C15,16.8,15,16.8,15,16.8z"/>
	<path class="st0" d="M14.9,7.6c-4,0-8.1,0-12.1,0c-0.7,0-1.1-0.4-1.4-0.9C0.7,5.4,1.6,3.9,3,3.9c8,0,16,0,23.9,0
		c1,0,1.8,0.8,1.9,1.8c0,0.9-0.7,1.9-1.8,1.9c-2.6,0-5.2,0-7.9,0C17.7,7.6,16.3,7.6,14.9,7.6C14.9,7.6,14.9,7.6,14.9,7.6z"/>
</g>
</svg>
