<?xml version="1.0" encoding="utf-8"?>
<!-- Generator: Adobe Illustrator 27.6.1, SVG Export Plug-In . SVG Version: 6.00 Build 0)  -->
<svg version="1.1" id="Layer_1" xmlns="http://www.w3.org/2000/svg" xmlns:xlink="http://www.w3.org/1999/xlink" x="0px" y="0px"
	 width="125px" height="125px" viewBox="0 0 125 125" style="enable-background:new 0 0 125 125;" xml:space="preserve">
<style type="text/css">
	.st0{fill:#D70567;}
</style>
<path class="st0" d="M109,71.9c0,0.3,0,0.5,0,0.8c0,11.2,0,22.5,0,33.7c0,1.5-0.1,3-0.5,4.5c-0.4,1.3-1,2.7-1.9,3.8
	c-0.4,0.5-0.7,1-1.2,1.5c-1.3,1.3-2.7,2.3-4.4,3c-1.2,0.5-2.5,0.7-3.8,0.8c-6.5,0.3-13.1,0-19.7,0.1c-2,0-3.7-1.6-3.7-3.6
	c0-8.9,0-17.9,0-26.8c0-0.7,0-1.5-0.2-2.3c-0.4-1.5-1.2-2.5-2.4-3.4c-1-0.7-2.1-1-3.3-1c-3.4,0-6.8-0.1-10.2,0c-0.9,0-1.9,0-2.8,0.4
	c-1.1,0.5-2.1,1.1-2.8,2.2c-0.8,1.2-0.9,2.5-0.9,3.8c0,9,0,18,0,27.1c0,1-0.4,1.9-1.2,2.7c-0.8,0.8-1.7,0.9-2.6,0.9
	c-6.3,0-12.6,0-18.9,0c-1.4,0-2.7-0.4-4-0.8c-2.2-0.7-4-2.1-5.4-3.8c-1.2-1.5-2.2-3.1-2.5-5.1c-0.2-1.4-0.4-2.7-0.4-4.1
	c0-11.2,0-22.3,0-33.5c0-0.8,0-0.8-0.8-0.8c-1.6,0-3.2-0.1-4.8-0.7c-1.5-0.6-2.8-1.4-4-2.6c-1-1.1-1.8-2.3-2.3-3.6
	c-0.8-2-1-4.1-0.6-6.2c0.3-1.4,0.9-2.7,1.7-4c1.2-1.8,2.9-3.1,4.4-4.7c4.4-4.4,8.8-8.9,13.3-13.3c2.6-2.6,5.1-5.1,7.7-7.7
	c6.1-6.1,12.3-12.3,18.4-18.4c1.9-1.9,3.8-3.9,5.8-5.8c1.4-1.4,3.2-2.4,5.1-2.8c1.1-0.2,2.2,0,3.3,0C66,2,68.1,3,69.8,4.6
	C77.5,12.3,85.2,20,93,27.8c8.7,8.7,17.4,17.4,26,26.1c0.9,0.9,1.6,2.1,2,3.4c0.3,1,0.5,1.9,0.5,2.9c0,1.3,0.1,2.6-0.3,3.9
	c-0.3,1.1-0.8,2.1-1.5,3c-1,1.3-2.1,2.5-3.6,3.3c-1.2,0.6-2.4,1-3.7,1.3C111.3,71.9,110.2,71.8,109,71.9z M102.1,87.7
	c0-6.2,0-12.3,0-18.5c0-0.8,0-1.7,0.4-2.4c0.7-1.2,1.8-1.9,3.3-1.9c0.9,0,1.9,0,2.8,0c1.2,0,2.3,0.2,3.5-0.2
	c1.1-0.4,1.9-1.1,2.3-2.1c0.7-1.8,0.3-3.3-1.1-4.7c-16-16-32-31.9-47.9-47.9C65,9.5,64.5,9.2,64,9c-1.7-0.6-3.2-0.2-4.5,1.1
	C44.3,25.4,29.1,40.7,13.8,55.9c-1,1-2.1,1.9-2.8,3c-0.6,0.9-0.6,1.9-0.4,2.9c0.3,1.6,2.1,3.1,3.9,3c1.6-0.1,3.3,0,5,0
	c1,0,1.9,0.3,2.7,1c0.8,0.8,1.1,1.7,1.1,2.8c0,12.6,0,25.2,0,37.8c0,0.2,0,0.3,0,0.5c-0.2,0.9,0,1.7,0.4,2.5
	c0.4,0.9,0.9,1.7,1.7,2.3c0.9,0.6,1.8,1.2,3,1.2c5.1,0,10.2,0,15.3,0c0.6,0,0.7-0.2,0.7-0.7c0-7.6,0-15.2,0-22.8
	c0-0.5-0.1-1-0.1-1.5c0.1-1.3,0.4-2.7,0.9-3.9c0.7-1.7,1.7-3.3,3.1-4.6c1.2-1.1,2.5-2,4-2.6c1.7-0.7,3.5-0.9,5.3-0.9
	c3.4,0,6.8,0,10.2,0c1.5,0,2.9,0.3,4.3,0.7c2.3,0.7,4.1,2,5.6,3.8c1,1.1,1.7,2.4,2.3,3.8c0.6,1.7,0.9,3.4,0.9,5.1c0,7.7,0,15.3,0,23
	c0,0.6,0.2,0.7,0.7,0.7c4.7,0,9.5,0,14.2,0c0.9,0,1.7-0.1,2.6-0.4c1.5-0.6,2.5-1.7,3.3-3.1c0.5-1.1,0.4-2.2,0.4-3.3
	C102.1,100,102.1,93.9,102.1,87.7z"/>
</svg>
