<?xml version="1.0" encoding="utf-8"?>
<!-- Generator: Adobe Illustrator 27.6.1, SVG Export Plug-In . SVG Version: 6.00 Build 0)  -->
<svg version="1.1" id="Layer_1" xmlns="http://www.w3.org/2000/svg" xmlns:xlink="http://www.w3.org/1999/xlink" x="0px" y="0px"
	 width="30px" height="30px" viewBox="0 0 30 30" style="enable-background:new 0 0 30 30;" xml:space="preserve">
<style type="text/css">
	.st0{fill:#FFFFFF;}
</style>
<path class="st0" d="M12.2,28.9c-0.1,0-0.3-0.1-0.4-0.1c-0.1-0.3-0.1-0.3-0.4-0.1c-0.1,0-0.3-0.1-0.4-0.1c0-0.2-0.2-0.3-0.3-0.3
	c-0.1,0-0.2,0.1-0.3,0.1c-0.3-0.1-0.5-0.2-0.8-0.3c0-0.1,0-0.1,0-0.2c0,0-0.1,0.1-0.1,0.1c-0.4-0.2-0.8-0.4-1.2-0.6
	c0-0.2-0.1-0.2-0.2-0.1c-0.1-0.1-0.2-0.1-0.3-0.2c0-0.1,0-0.2-0.1-0.2c-0.1,0-0.1,0.1-0.2,0.1c-0.2-0.1-0.3-0.3-0.5-0.4
	c0,0,0.1,0,0.1-0.1c0,0-0.1-0.1-0.1-0.1c0,0-0.1,0.1-0.1,0.1c-0.2-0.1-0.4-0.3-0.6-0.4c0.1-0.1,0.1-0.2-0.1-0.2c-0.1,0-0.1,0-0.2,0
	c0,0,0,0-0.1-0.1c0-0.1,0-0.1,0.1-0.2c-0.1,0-0.2,0-0.2,0c-0.1-0.1-0.2-0.2-0.3-0.3c0-0.1,0-0.2,0.1-0.2c-0.1,0-0.2,0-0.3,0
	C5.3,25.1,5.2,25,5.1,25c0-0.4,0-0.5-0.4-0.4c-0.1-0.1-0.1-0.1-0.2-0.2c0-0.2,0-0.4-0.3-0.3c0,0,0,0-0.1-0.1c0-0.1,0-0.2,0-0.3
	c-0.1,0-0.1,0-0.2,0c-0.1-0.2-0.3-0.3-0.4-0.5c0,0,0.1-0.1,0.1-0.1c-0.1,0-0.2,0-0.3-0.1c-0.1-0.1-0.2-0.3-0.3-0.4
	c0-0.1,0.1-0.1,0.1-0.2c-0.1,0-0.2,0-0.2,0c0-0.1-0.1-0.1-0.1-0.2c0,0,0-0.1,0-0.1c0-0.1,0.1-0.3-0.2-0.2c-0.2-0.4-0.4-0.8-0.5-1.1
	c0-0.1,0.1-0.1,0.1-0.2c-0.1,0-0.1,0-0.2,0c-0.1-0.2-0.2-0.5-0.3-0.7c0.2-0.1,0.1-0.3,0-0.5c0-0.1-0.1-0.2-0.3-0.2
	c-0.1-0.2-0.1-0.4-0.2-0.6c0-0.1,0.1-0.2,0.1-0.3c0,0-0.1-0.1-0.2-0.1c0-0.1,0-0.1-0.1-0.2c0.1-0.1,0.1-0.1,0.2-0.2
	c-0.1,0-0.1-0.1-0.2-0.1c-0.1-0.5-0.1-0.9-0.2-1.4c0,0,0.1,0,0.1-0.1c0,0-0.1,0-0.1-0.1c0-0.3,0-0.6,0-0.9c0.1-0.1,0.2-0.1,0.2-0.2
	c0-0.1,0-0.2-0.2-0.2c0-0.3,0-0.6,0-0.9c0,0,0.1,0,0.1-0.1c0,0-0.1,0-0.1-0.1c0.1-0.5,0.1-0.9,0.2-1.4c0.1,0,0.1-0.1,0.2-0.1
	c-0.1-0.1-0.1-0.1-0.2-0.2c0-0.1,0-0.1,0.1-0.2c0.1-0.1,0.2-0.1,0.2-0.2c0-0.1-0.1-0.2-0.1-0.2c0.1-0.2,0.1-0.4,0.2-0.6
	c0.2,0,0.2-0.1,0.3-0.3c0-0.1,0.1-0.3-0.1-0.3C2,10.1,2.1,9.8,2.2,9.6c0.1,0,0.1,0,0.2,0c0-0.1-0.1-0.1-0.1-0.2
	C2.5,9,2.7,8.6,2.9,8.2c0,0,0.1,0,0.1,0C3,8.1,3,8.1,2.9,8C3,8,3,7.9,3.1,7.9c0.1,0,0.1,0,0.2,0c0-0.1-0.1-0.1-0.1-0.2
	c0.1-0.2,0.3-0.4,0.4-0.6C3.6,7,3.7,7,3.8,7c0,0-0.1-0.1-0.1-0.1C3.8,6.7,4,6.5,4.1,6.4c0.1,0,0.1,0,0.2,0c0-0.1,0-0.1,0-0.2
	c0,0,0-0.1,0.1-0.1c0.3,0.1,0.3-0.1,0.3-0.3c0.1-0.1,0.1-0.1,0.2-0.2c0.3,0.1,0.3,0.1,0.3-0.3C5.2,5.1,5.3,5,5.4,4.9
	c0.1,0,0.2,0,0.3,0c0-0.1,0-0.2-0.1-0.2c0.1-0.1,0.2-0.1,0.3-0.2c0.1,0,0.2,0,0.2,0c0-0.1,0-0.1-0.1-0.2c0.1,0,0.1-0.1,0.2-0.1
	c0.1,0,0.2,0,0.2,0c0,0-0.1-0.1-0.1-0.1C6.6,3.9,6.8,3.8,7,3.6c0,0,0.1,0.1,0.1,0.1c0-0.1,0.1-0.2,0.1-0.3c0.2-0.1,0.4-0.3,0.6-0.4
	c0,0,0,0,0.1,0C8,3,8.1,2.9,8.2,2.9c0.2,0.1,0.2,0,0.2-0.1c0.4-0.2,0.7-0.4,1.1-0.5c0.2,0.2,0.2,0.1,0.3-0.1
	c0.2-0.1,0.4-0.2,0.6-0.2c0,0,0,0,0.1,0c0,0,0,0,0.1,0c0.1,0,0.2,0.1,0.2,0.1c0.1-0.1,0.4,0,0.4-0.3c0.2-0.1,0.5-0.1,0.7-0.2
	c0.1,0.1,0.2,0.2,0.3,0c0.1,0,0.1,0,0.2-0.1c0.1,0,0.1,0.1,0.2,0.1c0,0,0.1-0.1,0.1-0.1C13.3,1.1,14.1,1,14.9,1
	c0,0.2,0.1,0.2,0.2,0.2c0.1,0,0.2,0,0.2-0.2c0.5,0,1,0.1,1.5,0.1c0.1,0,0.2,0,0.3,0c0.1,0.2,0.1,0.2,0.3,0.1c0,0,0,0,0.1,0
	c0.1,0.2,0.4,0.3,0.6,0.1c0.1,0,0.1,0,0.2,0.1c0.1,0.1,0.2,0.1,0.3,0.2c0,0,0.1-0.1,0.1-0.1c0.2,0.1,0.4,0.1,0.6,0.2
	c0.1,0.3,0.4,0.3,0.6,0.2c0.3,0.1,0.5,0.2,0.8,0.3c0,0,0,0.1,0,0.1c0.1,0,0.1-0.1,0.2-0.1c0.2,0.1,0.4,0.2,0.6,0.3c0,0,0,0.1,0,0.1
	c0,0,0.1,0,0.1-0.1c0.2,0.1,0.3,0.2,0.5,0.3c0,0,0,0.1,0,0.1c0,0,0.1,0,0.1-0.1c0.1,0,0.1,0.1,0.2,0.1c0,0.1,0.1,0.2,0.1,0.2
	c0.1,0,0.2,0,0.3,0c0.2,0.1,0.4,0.2,0.6,0.4c0,0,0,0.1,0,0.1c0.1,0,0.1,0,0.2,0c0.2,0.1,0.3,0.3,0.5,0.4c0,0-0.1,0.1-0.1,0.1
	c0.1,0,0.1,0,0.2,0c0.1,0.1,0.1,0.1,0.2,0.2c0,0-0.1,0.1-0.1,0.1c0.1,0,0.1,0,0.2,0c0.1,0.1,0.2,0.2,0.3,0.3c-0.2,0.1-0.1,0.2,0,0.2
	c0.1,0,0.2,0,0.3,0c0.1,0.1,0.2,0.2,0.3,0.3c-0.1,0.2,0,0.3,0.1,0.3c0,0,0.1,0,0.2-0.1c0.1,0.1,0.2,0.2,0.3,0.3c0,0,0,0.1,0,0.1
	c0,0,0.1,0,0.1,0C26,6.1,26,6.1,26.1,6.2c0,0.1,0,0.1,0,0.2c0,0,0.1-0.1,0.1-0.1c0.1,0.2,0.3,0.4,0.4,0.6c0,0-0.1,0.1-0.1,0.1
	c0.1,0,0.1,0.1,0.2,0.1c0.1,0.1,0.2,0.2,0.2,0.3c0,0.3,0,0.3,0.2,0.3c0.1,0.1,0.1,0.2,0.2,0.3c0,0,0,0.1-0.1,0.1c0,0,0.1,0,0.1,0
	C27.6,8.6,27.8,9,28,9.4C28,9.4,28,9.5,28,9.6c0,0,0.1,0,0.1,0c0.1,0.3,0.2,0.5,0.3,0.8c-0.2,0.2-0.1,0.5,0.2,0.6
	c0.1,0.2,0.1,0.4,0.2,0.6c0,0-0.1,0.1-0.1,0.1c0,0.1,0,0.3,0.2,0.3c0,0.1,0,0.1,0.1,0.2c0,0.1-0.1,0.1-0.1,0.2c0,0,0.1,0.1,0.1,0.1
	c0.1,0.4,0.1,0.9,0.2,1.3c0,0-0.1,0.1-0.1,0.1c0.1,0,0.1,0.1,0.2,0.1c0,0.3,0,0.6,0,0.9c-0.1,0.1-0.2,0.1-0.2,0.2
	c0,0.1,0,0.2,0.2,0.2c0,0.3,0,0.6-0.1,0.9c0,0-0.1,0.1-0.1,0.1c0,0,0.1,0.1,0.1,0.1c-0.1,0.4-0.1,0.9-0.2,1.3
	c-0.1,0-0.1,0.1-0.1,0.1c0,0.1,0.1,0.1,0.1,0.2c0,0.1,0,0.1-0.1,0.2c-0.2,0.1-0.3,0.3-0.1,0.5c-0.1,0.2-0.1,0.4-0.2,0.5
	c-0.3,0.1-0.4,0.4-0.2,0.6c-0.1,0.3-0.2,0.5-0.3,0.8c-0.1,0-0.1,0-0.2,0c0,0.1,0.1,0.1,0.1,0.2c-0.2,0.4-0.4,0.8-0.6,1.2
	c0,0-0.1,0-0.1,0c0,0,0,0.1,0.1,0.1c-0.1,0.1-0.1,0.2-0.2,0.3c-0.2,0-0.2,0-0.2,0.3c-0.1,0.1-0.2,0.2-0.2,0.3
	c-0.1,0-0.1,0.1-0.2,0.1c0,0,0.1,0.1,0.1,0.1c-0.1,0.2-0.3,0.4-0.4,0.6c0,0-0.1-0.1-0.1-0.1c0,0.1,0,0.1,0,0.2
	C26,24,26,24.1,25.9,24.2c0,0-0.1,0-0.1,0c0,0.1,0,0.1,0,0.2c0,0.1-0.1,0.1-0.1,0.2c-0.4,0-0.5,0.1-0.4,0.4
	c-0.1,0.1-0.2,0.2-0.3,0.3c-0.2-0.1-0.2,0-0.3,0.1c0,0,0,0.1,0,0.2c-0.1,0.1-0.2,0.2-0.3,0.3c-0.1-0.1-0.2,0-0.2,0.2
	c-0.1,0-0.1,0.1-0.2,0.1c-0.2-0.1-0.2,0.1-0.2,0.2c-0.2,0.1-0.3,0.2-0.5,0.3c0,0-0.1,0.1-0.1,0.1c-0.1,0.1-0.3,0.2-0.4,0.3
	c-0.3,0-0.3,0-0.3,0.2c-0.1,0-0.1,0.1-0.2,0.1c-0.1,0-0.3-0.1-0.3,0.2c-0.4,0.2-0.8,0.4-1.2,0.6c0,0-0.1-0.1-0.1-0.1
	c0,0.1-0.1,0.1-0.1,0.2c-0.2,0.1-0.5,0.2-0.7,0.3c-0.1-0.2-0.3-0.1-0.4,0c-0.1,0-0.2,0.1-0.2,0.3c-0.2,0.1-0.3,0.1-0.5,0.2
	c0-0.2-0.1-0.2-0.3-0.1c-0.1,0-0.3,0-0.2,0.2c-0.1,0-0.1,0-0.2,0c-0.2-0.3-0.3,0-0.5,0.1c-0.1,0-0.1,0-0.2,0.1c0,0,0-0.1-0.1-0.1
	c0,0-0.1,0.1-0.1,0.1c-0.2,0-0.5,0.1-0.7,0.1c0,0-0.1-0.1-0.1-0.1c0,0.1-0.1,0.1-0.1,0.2c-0.7,0-1.5,0-2.2,0.1c0,0,0,0-0.1,0
	c0,0,0-0.1-0.1-0.1c0,0,0,0.1-0.1,0.1c-0.5-0.1-0.9-0.1-1.4-0.2c0-0.1-0.1-0.1-0.1-0.2C12.4,28.8,12.3,28.8,12.2,28.9z M3.1,16.5
	L3.1,16.5c0,0.1,0,0.1,0,0.2c0,0-0.1,0.1-0.1,0.1c0.1,0,0.1,0.1,0.2,0.1c0,0.2,0.1,0.3,0.1,0.5c0,0-0.1,0-0.1,0.1c0,0,0.1,0,0.1,0.1
	c0.1,0.2,0.1,0.4,0.2,0.6c0,0-0.1,0-0.1,0.1c0,0,0.1,0,0.1,0.1c0,0.1,0,0.1,0.1,0.2c0,0,0,0.1,0,0.1c0,0-0.1,0-0.1,0.1
	c0,0,0.1,0,0.1,0.1c0.1,0.1,0.1,0.3,0.2,0.4c0,0.1-0.1,0.1-0.1,0.2c0.1,0,0.1,0,0.2,0c0.1,0.2,0.1,0.3,0.2,0.5
	c0,0.1,0.1,0.2,0.1,0.3l0,0c0,0.1,0,0.1,0,0.2c0,0,0.1,0,0.1,0c0.1,0.1,0.1,0.2,0.2,0.3c0,0.1-0.1,0.1-0.1,0.2
	c0,0.2,0.1,0.2,0.3,0.2c0,0,0,0,0,0.1c-0.1,0.3,0.1,0.5,0.3,0.6c0.1,0.1,0.2,0.3,0.3,0.4c0,0-0.1,0.1-0.1,0.1c0.1,0,0.1,0.1,0.2,0.1
	c0.1,0,0.1,0.1,0.2,0.1c0,0,0,0.1,0,0.1c0,0,0.1,0.1,0.1,0.1c0,0.1,0.1,0.1,0.1,0.2c0,0.1,0,0.2,0,0.3c0,0,0.1-0.1,0.1-0.1
	c0,0,0,0,0,0C6,23,6.1,23.1,6.1,23.2c-0.1,0.2,0,0.3,0.1,0.3c0,0,0.1,0,0.2-0.1c0.1,0.1,0.2,0.2,0.3,0.3c0,0.1-0.1,0.1-0.1,0.2
	c0.1,0.1,0.2,0.3,0.3,0.1c0.1,0.1,0.2,0.2,0.3,0.3c0,0-0.1,0.1-0.1,0.1c0.1,0,0.1,0,0.2,0c0.1,0,0.1,0.1,0.2,0.1c0,0,0,0.1,0,0.1
	c0,0,0.1,0,0.1,0c0.1,0.1,0.3,0.2,0.4,0.3c0,0,0,0.1,0,0.1c0,0,0.1,0,0.1,0c0.2,0.1,0.3,0.2,0.5,0.3c0,0.2,0.3,0.4,0.6,0.3
	c0,0,0,0,0.1,0c0.1,0.1,0.1,0.2,0.2,0.3c0,0,0.1,0,0.2-0.1c0.4,0.2,0.8,0.4,1.3,0.6c0,0.1,0,0.2,0,0.2c0.1,0,0.2,0,0.3-0.1
	c0,0,0.1,0,0.1,0c0.6,0.2,1.2,0.3,1.9,0.5c0,0,0.1,0.1,0.1,0.1c0,0,0.1-0.1,0.1-0.1c0.1,0,0.1,0,0.2,0c0.1,0.2,0.1,0.2,0.2,0.1
	c0.8,0,1.6,0,2.4,0c0,0,0.1,0.1,0.1,0.1c0-0.1,0.1-0.1,0.1-0.2c0,0,0.1,0,0.1,0c0.1,0.1,0.3,0.2,0.3,0c0,0,0,0,0.1,0
	c0.1,0,0.1,0,0.2,0c0.1,0,0.1,0,0.2-0.1c0,0,0.1,0.1,0.1,0.1c0,0,0.1-0.1,0.1-0.1c0.3-0.1,0.6-0.2,0.9-0.3c0.1,0.2,0.2,0.1,0.2-0.1
	c0.1,0,0.2,0,0.3-0.1c0.2,0.1,0.4,0.1,0.4-0.1c0.2-0.1,0.5-0.2,0.7-0.3c0.1,0.1,0.2,0,0.2-0.1c0.1-0.1,0.2-0.1,0.3-0.2
	c0,0,0.1,0.1,0.1,0.1c0.2,0,0.2-0.2,0.3-0.3c0,0,0,0,0.1,0c0.1,0,0.2,0.1,0.2,0.1c0.1-0.1,0.4-0.1,0.4-0.4c0.1-0.1,0.3-0.2,0.4-0.2
	c0.3,0.2,0.3,0,0.3-0.2c0,0,0.1,0,0.1-0.1c0.2,0,0.4,0.1,0.3-0.2l0,0c0.2,0.1,0.3,0,0.3-0.2c0.1-0.1,0.1-0.1,0.2-0.2
	c0.1,0,0.2,0,0.3,0c0-0.1,0-0.2-0.1-0.2c0.1-0.1,0.2-0.2,0.3-0.3c0.3,0.1,0.3,0.1,0.3-0.3c0-0.1,0.1-0.1,0.1-0.2c0,0,0,0,0,0
	c0,0,0,0,0,0c0.1,0,0.1,0,0.2,0c0-0.1,0-0.1,0-0.2c0,0,0,0,0.1-0.1c0.2,0,0.2-0.1,0.2-0.2c0-0.1,0-0.1,0.1-0.2c0,0,0.1-0.1,0.1-0.1
	c0,0,0.1,0,0.1,0c0,0,0-0.1,0-0.1c0.1-0.2,0.3-0.4,0.4-0.6c0,0,0,0.1,0.1,0.1c0,0,0.1,0,0.1,0c0.1-0.1,0.1-0.2,0.2-0.3
	c0-0.1,0-0.1-0.1-0.2c0-0.1,0.1-0.1,0.1-0.2c0.1,0,0.2,0,0.2,0c0.1-0.1,0.2-0.3,0-0.5c0,0,0-0.1,0.1-0.1c0,0,0,0,0,0
	c0.1,0,0.1-0.1,0.2-0.1c0,0-0.1-0.1-0.1-0.1c0-0.1,0.1-0.2,0.1-0.3c0.1-0.1,0.1-0.3,0.2-0.4c0.1,0,0.1-0.1,0.2-0.1
	c0-0.1-0.1-0.2-0.1-0.2c0,0,0,0,0-0.1c0,0,0.1-0.1,0.1-0.1c0-0.1,0-0.1,0-0.2c0,0,0.1,0,0.1,0c0,0-0.1,0-0.1-0.1
	c0-0.1,0-0.2,0.1-0.3c0,0,0.1,0,0.1-0.1c0,0-0.1,0-0.1-0.1c0-0.1,0-0.3,0-0.4c0-0.1,0-0.1,0.1-0.2c0,0,0.1-0.1,0.1-0.1
	c0,0-0.1,0-0.1-0.1c0-0.1,0-0.1,0-0.2c0-0.1,0-0.2,0.1-0.3l0,0c0.1,0,0.1-0.1,0.2-0.1c0,0-0.1-0.1-0.1-0.1c0-0.1,0-0.2,0-0.3
	c0.1,0,0.1,0,0.2-0.1c0,0-0.1-0.1-0.1-0.1c0-0.2,0-0.3,0-0.5c0.1,0,0.1-0.1,0.2-0.1c-0.1-0.1-0.1-0.1-0.2-0.2c0-0.3,0-0.6,0-0.9
	c0.1-0.1,0.1-0.1,0.2-0.2c-0.1,0-0.1-0.1-0.2-0.1c0-0.1,0-0.3,0-0.4c0,0,0,0,0-0.1c0,0,0.1-0.1,0.1-0.1c-0.1,0-0.1-0.1-0.2-0.1l0,0
	c0-0.1,0-0.1,0-0.2c0,0,0.1-0.1,0.1-0.1c-0.1,0-0.1-0.1-0.2-0.1c0-0.2,0-0.3-0.1-0.5c0,0,0.1,0,0.1-0.1c0,0-0.1-0.1-0.1-0.1
	c0-0.1,0-0.1-0.1-0.2c0-0.1,0-0.3,0-0.4c0,0,0.1,0,0.1-0.1c0,0-0.1,0-0.1-0.1c0-0.1,0-0.2-0.1-0.3c0,0,0.1,0,0.1-0.1
	c0,0-0.1,0-0.1-0.1c0-0.1-0.1-0.3-0.1-0.4c0-0.1,0.1-0.2,0.1-0.2c-0.1,0-0.1-0.1-0.2-0.1c-0.1-0.2-0.2-0.4-0.3-0.7
	c0-0.1,0.1-0.1,0.1-0.2c-0.1,0-0.2-0.1-0.3-0.1c0-0.1,0-0.1-0.1-0.2c0-0.1,0-0.1,0-0.2c0-0.1,0-0.2,0-0.3c-0.1,0-0.1,0-0.2,0
	c0-0.1-0.1-0.1-0.1-0.2c0-0.1,0.1-0.1,0.1-0.2c-0.1-0.1-0.2-0.2-0.2-0.3c0,0,0,0.1-0.1,0.1c-0.1-0.2-0.3-0.4-0.4-0.6
	c0,0,0.1-0.1,0.1-0.1c-0.1,0-0.2,0-0.3-0.1c0-0.1-0.1-0.1-0.1-0.2c0.2-0.3-0.2-0.3-0.2-0.5c-0.1,0-0.2,0-0.2,0
	c0-0.1-0.1-0.1-0.1-0.2c0-0.4,0-0.5-0.4-0.4c-0.1-0.1-0.3-0.2-0.4-0.4c0-0.1,0.1-0.1,0.1-0.2c-0.1-0.1-0.2-0.2-0.4-0.1
	c-0.1,0-0.1-0.1-0.2-0.1c0,0,0,0,0,0c0,0,0,0,0,0c-0.1-0.1-0.2-0.3-0.3-0.4c0,0-0.1,0-0.2,0c-0.1-0.1-0.1-0.1-0.2-0.2
	c0-0.1,0-0.1,0-0.2c0,0-0.1,0.1-0.1,0.1c-0.2-0.1-0.4-0.3-0.6-0.4c0,0,0,0-0.1,0c-0.1-0.1-0.3-0.2-0.4-0.2c0-0.1,0-0.2-0.1-0.2
	c-0.1,0-0.1,0.1-0.2,0.1c-0.1-0.1-0.3-0.1-0.4-0.2c0-0.1,0-0.1,0-0.2c-0.1,0-0.1,0.1-0.2,0.1c-0.3-0.1-0.6-0.2-0.9-0.3
	c0,0-0.1,0-0.1,0c-0.1,0-0.2-0.1-0.3-0.1c0-0.1-0.1-0.1-0.1-0.2c-0.1,0-0.1,0.1-0.2,0.1c0,0-0.1,0-0.1-0.1c-0.1-0.3-0.2-0.3-0.4-0.1
	c-0.1,0-0.2,0-0.3-0.1c0-0.1-0.1-0.1-0.1-0.2c0,0-0.1,0.1-0.1,0.1c-0.1,0-0.1,0-0.2,0c-0.1,0-0.1,0-0.2-0.1c0,0,0,0-0.1,0
	C17,3.1,17,3,16.9,2.9C16.9,3,16.8,3,16.8,3.1c-0.1,0-0.1,0-0.2,0c0,0,0,0-0.1,0C16.1,3,15.6,3,15.2,3c-0.6,0-1.1,0.1-1.7,0.1
	c-0.2,0-0.4,0.1-0.6,0.1c-0.3,0.1-0.6,0.1-0.9,0.2c0,0,0-0.1-0.1-0.1c0,0,0,0.1-0.1,0.1c-0.2,0.1-0.4,0.1-0.6,0.2
	c-0.8,0.3-1.5,0.6-2.3,1c-0.5,0.3-1,0.7-1.5,1.1c-0.1,0-0.2,0-0.2,0c0,0,0,0.1,0,0.1C7.2,5.9,7.1,6,7,6.1c-0.2-0.1-0.3,0-0.3,0.1
	c0,0,0,0.1,0.1,0.2C6.6,6.4,6.5,6.6,6.4,6.7c-0.1,0-0.1-0.1-0.2-0.1C6.1,6.7,6,6.8,6.1,6.9C6,7,6,7.2,5.9,7.3c0,0-0.1-0.1-0.1-0.1
	c0,0.1,0,0.1,0,0.2c0,0.1-0.1,0.1-0.1,0.2c0,0-0.1,0.1-0.1,0.1C5.5,7.7,5.4,7.8,5.4,7.9C5.3,7.9,5.2,7.9,5.2,8c0,0,0.1,0.1,0.1,0.1
	C5.1,8.2,5,8.4,4.9,8.5c-0.2,0-0.3,0.1-0.2,0.3C4.7,8.9,4.6,9.1,4.5,9.2c-0.3,0-0.3,0.1-0.2,0.4C4.3,9.7,4.2,9.8,4.2,9.9
	c0,0-0.1,0-0.1,0c0,0.1,0,0.1,0,0.2c-0.1,0.1-0.1,0.3-0.2,0.5c-0.1,0.3-0.2,0.6-0.3,0.9c0,0-0.1,0-0.1,0.1c0,0,0.1,0,0.1,0.1
	c0,0.1-0.1,0.2-0.1,0.3c0,0-0.1,0-0.1,0.1c0,0,0.1,0,0.1,0.1c-0.1,0.2-0.1,0.4-0.2,0.6c0,0-0.1,0-0.1,0.1c0,0,0.1,0,0.1,0.1
	c0,0.2-0.1,0.3-0.1,0.5c-0.1,0-0.1,0.1-0.2,0.1c0,0,0.1,0.1,0.1,0.1c0,0.1,0,0.1,0,0.2c0,0.1,0,0.2,0,0.3c0,0.1,0,0.3-0.1,0.4
	c0,0-0.1,0.1-0.1,0.1c0,0,0.1,0,0.1,0.1c0,0.3,0,0.6,0,0.9c-0.1,0-0.1,0.1-0.2,0.1c0.1,0,0.1,0.1,0.2,0.1c0,0.1,0,0.3,0.1,0.4
	c0,0,0,0,0,0.1c0,0-0.1,0.1-0.1,0.1C3,16.4,3,16.5,3.1,16.5z"/>
<path class="st0" d="M1.7,19.2c0.1,0,0.2,0,0.3,0.2c0,0.2,0.2,0.3,0,0.5C1.8,19.7,1.7,19.4,1.7,19.2z"/>
<path class="st0" d="M1.9,10.3C2.1,10.4,2,10.6,2,10.7c0,0.1-0.1,0.3-0.3,0.3C1.7,10.7,1.8,10.5,1.9,10.3z"/>
<path class="st0" d="M10.4,28.4c0.1,0,0.2-0.1,0.3-0.1c0.2,0,0.4,0.1,0.3,0.3C10.8,28.5,10.6,28.4,10.4,28.4z"/>
<path class="st0" d="M19.3,28.6c0-0.2,0.1-0.2,0.2-0.3c0.1,0,0.3-0.2,0.4,0C19.7,28.4,19.5,28.5,19.3,28.6z"/>
<path class="st0" d="M11,1.6c0,0.3-0.2,0.2-0.4,0.3c0,0-0.1-0.1-0.2-0.1C10.6,1.7,10.8,1.7,11,1.6z"/>
<path class="st0" d="M28.6,11c-0.3-0.1-0.4-0.4-0.2-0.6C28.5,10.5,28.5,10.7,28.6,11z"/>
<path class="st0" d="M19.9,1.8c-0.2,0.2-0.5,0.1-0.6-0.2C19.5,1.7,19.7,1.8,19.9,1.8z"/>
<path class="st0" d="M28.4,19.8c-0.2-0.2-0.1-0.5,0.2-0.6C28.5,19.4,28.5,19.6,28.4,19.8z"/>
<path class="st0" d="M4.8,24.6c0.3-0.1,0.4,0,0.4,0.4C5,24.9,4.9,24.7,4.8,24.6z"/>
<path class="st0" d="M18.3,28.8c0-0.2,0.1-0.2,0.2-0.2c0.1,0,0.2,0,0.3,0.1C18.6,28.8,18.5,28.8,18.3,28.8z"/>
<path class="st0" d="M29.2,15.3c-0.2,0-0.2-0.1-0.2-0.2c0-0.1,0.1-0.1,0.2-0.2C29.2,15,29.2,15.2,29.2,15.3z"/>
<path class="st0" d="M1.1,14.9c0.2,0,0.2,0.1,0.2,0.2c0,0.1-0.1,0.1-0.2,0.2C1.1,15.2,1.1,15,1.1,14.9z"/>
<path class="st0" d="M25.2,24.9c-0.1-0.3,0-0.4,0.4-0.4C25.5,24.6,25.4,24.8,25.2,24.9z"/>
<path class="st0" d="M5.3,25.2c0.1,0,0.2,0,0.3,0c0,0.1,0,0.2-0.1,0.2C5.5,25.3,5.4,25.2,5.3,25.2z"/>
<path class="st0" d="M5.6,4.7c0,0.1,0,0.2,0.1,0.2c-0.1,0-0.2,0-0.3,0C5.5,4.9,5.5,4.8,5.6,4.7z"/>
<path class="st0" d="M24.7,25.4c0-0.1-0.1-0.2,0-0.2c0.1-0.1,0.2-0.2,0.3-0.1C24.9,25.3,24.8,25.3,24.7,25.4z"/>
<path class="st0" d="M25.5,5.6c-0.1,0-0.1,0.1-0.2,0.1c-0.1-0.1-0.3-0.2-0.1-0.3C25.3,5.4,25.4,5.5,25.5,5.6z"/>
<path class="st0" d="M18.1,1.3c-0.2,0.2-0.4,0.1-0.6-0.1C17.7,1.3,17.9,1.3,18.1,1.3z"/>
<path class="st0" d="M17.6,28.9c0.2-0.1,0.3-0.4,0.5-0.1C17.9,28.9,17.7,28.9,17.6,28.9z"/>
<path class="st0" d="M28.8,18.7c-0.1-0.2-0.1-0.4,0.1-0.5C28.8,18.4,28.8,18.5,28.8,18.7z"/>
<path class="st0" d="M15.4,1c0,0.2-0.1,0.2-0.2,0.2c-0.1,0-0.2,0-0.2-0.2C15.1,1,15.2,1,15.4,1z"/>
<path class="st0" d="M5.1,5.2c0,0.4,0,0.4-0.3,0.3C4.9,5.4,5,5.3,5.1,5.2z"/>
<path class="st0" d="M11.4,28.7c0.3-0.2,0.4-0.2,0.4,0.1C11.7,28.8,11.6,28.7,11.4,28.7z"/>
<path class="st0" d="M1.4,18.2c0.1,0,0.2,0.1,0.2,0.1c0,0.1-0.1,0.2-0.1,0.3C1.5,18.5,1.4,18.3,1.4,18.2z"/>
<path class="st0" d="M1.5,11.6c0,0.1,0.1,0.2,0.1,0.2c0,0.1-0.1,0.1-0.2,0.2C1.4,11.8,1.5,11.7,1.5,11.6z"/>
<path class="st0" d="M25,5c-0.1,0-0.2,0-0.3,0c-0.1-0.1-0.2-0.1,0-0.2C24.8,4.8,24.9,4.9,25,5z"/>
<path class="st0" d="M22.7,3.2c-0.1,0-0.2,0.1-0.3,0c-0.1,0-0.1-0.2-0.1-0.2C22.4,3,22.6,3.1,22.7,3.2z"/>
<path class="st0" d="M3.1,22.4c0.1,0,0.2,0,0.2,0c0,0.1-0.1,0.1-0.1,0.2c0-0.1-0.1-0.1-0.1-0.2C3.1,22.5,3.1,22.5,3.1,22.4
	C3.1,22.4,3.1,22.4,3.1,22.4z"/>
<path class="st0" d="M28.9,11.9c-0.2,0-0.1-0.2-0.2-0.3c0,0,0.1-0.1,0.1-0.1C28.8,11.7,28.8,11.8,28.9,11.9z"/>
<path class="st0" d="M18.7,1.4c0,0-0.1,0.1-0.1,0.1c-0.1-0.1-0.2-0.1-0.3-0.2C18.4,1.4,18.6,1.4,18.7,1.4z"/>
<path class="st0" d="M1.3,17.7c0.1,0,0.1,0.1,0.2,0.1c-0.1,0.1-0.1,0.1-0.2,0.2C1.3,17.9,1.3,17.8,1.3,17.7z"/>
<path class="st0" d="M1.4,12.2c0.1,0.1,0.1,0.1,0.2,0.2c-0.1,0-0.1,0.1-0.2,0.1C1.3,12.3,1.3,12.3,1.4,12.2z"/>
<path class="st0" d="M7.6,27c0.1,0,0.1-0.1,0.2-0.1c0,0.1,0,0.2,0.1,0.2C7.7,27.1,7.7,27,7.6,27z"/>
<path class="st0" d="M2.3,9.4c0,0.1,0.1,0.1,0.1,0.2c-0.1,0-0.1,0-0.2,0C2.2,9.5,2.3,9.4,2.3,9.4z"/>
<path class="st0" d="M2.2,20.6c0.1,0,0.1,0,0.2,0c0,0.1-0.1,0.1-0.1,0.2C2.3,20.7,2.2,20.7,2.2,20.6z"/>
<path class="st0" d="M4.3,24.1c0.3-0.1,0.3,0.1,0.3,0.3C4.5,24.3,4.4,24.2,4.3,24.1z"/>
<path class="st0" d="M4.6,5.8c0,0.2,0,0.4-0.3,0.3C4.4,6,4.5,5.9,4.6,5.8z"/>
<path class="st0" d="M12.2,28.9c0.1-0.1,0.1-0.1,0.2-0.2c0,0.1,0.1,0.1,0.1,0.2C12.4,28.9,12.3,28.9,12.2,28.9z"/>
<path class="st0" d="M4.1,23.8c0.1,0,0.1,0,0.2,0c0,0.1,0,0.2,0,0.3C4.2,24,4.2,23.9,4.1,23.8z"/>
<path class="st0" d="M6.1,25.9c0.1,0,0.1,0,0.2,0c0.2,0,0.2,0.1,0.1,0.2C6.3,26.1,6.2,26,6.1,25.9z"/>
<path class="st0" d="M22.4,27.1c0-0.2,0-0.2,0.3-0.2C22.7,27,22.5,27.1,22.4,27.1z"/>
<path class="st0" d="M3.2,7.7c0,0.1,0.1,0.1,0.1,0.2c-0.1,0-0.1,0-0.2,0C3.1,7.8,3.1,7.7,3.2,7.7z"/>
<path class="st0" d="M7.2,3.5c0,0.1-0.1,0.2-0.1,0.3C7,3.7,7,3.7,7,3.6C7,3.6,7.1,3.5,7.2,3.5z"/>
<path class="st0" d="M4.3,6.2c0,0.1,0,0.1,0,0.2c-0.1,0-0.1,0-0.2,0C4.1,6.3,4.2,6.2,4.3,6.2z"/>
<path class="st0" d="M27,22.7c0-0.3,0-0.3,0.2-0.3C27.1,22.5,27,22.6,27,22.7z"/>
<path class="st0" d="M9.7,2.1C9.7,2.3,9.6,2.4,9.4,2.2C9.5,2.2,9.6,2.1,9.7,2.1z"/>
<path class="st0" d="M27.2,7.8c-0.2,0-0.2,0-0.2-0.3C27,7.5,27.1,7.6,27.2,7.8z"/>
<path class="st0" d="M12.5,1.3c0,0.1-0.1,0.1-0.1,0.1c-0.1,0-0.1-0.1-0.2-0.1C12.3,1.3,12.4,1.3,12.5,1.3z"/>
<path class="st0" d="M6.1,4.3c0,0.1,0,0.1,0.1,0.2c-0.1,0-0.2,0-0.2,0C6,4.4,6,4.3,6.1,4.3z"/>
<path class="st0" d="M28.9,18c0-0.1-0.1-0.1-0.1-0.2c0,0,0.1-0.1,0.1-0.1C29,17.8,28.9,17.9,28.9,18z"/>
<path class="st0" d="M5.9,25.7c0.1,0,0.2,0,0.2,0c0,0.1,0,0.1-0.1,0.2C6,25.8,6,25.8,5.9,25.7z"/>
<path class="st0" d="M9.5,28c0,0,0.1-0.1,0.1-0.1c0,0.1,0,0.1,0,0.2C9.6,28,9.5,28,9.5,28z"/>
<path class="st0" d="M6.4,4.1C6.4,4.1,6.5,4.1,6.4,4.1c0,0.1-0.1,0.1-0.2,0.1C6.3,4.1,6.3,4.1,6.4,4.1z"/>
<path class="st0" d="M23.8,26.2c0-0.1,0-0.3,0.2-0.2C24,26.1,23.9,26.1,23.8,26.2z"/>
<path class="st0" d="M20.6,28.1c0-0.1,0.1-0.1,0.1-0.2c0,0,0.1,0.1,0.1,0.1C20.8,28,20.7,28,20.6,28.1z"/>
<path class="st0" d="M28,20.8c0-0.1-0.1-0.1-0.1-0.2c0.1,0,0.1,0,0.2,0C28.1,20.7,28.1,20.7,28,20.8z"/>
<path class="st0" d="M28.1,9.6c0,0-0.1,0-0.1,0C28,9.5,28,9.4,28,9.4C28.1,9.4,28.1,9.5,28.1,9.6z"/>
<path class="st0" d="M16.3,29.1c0-0.1,0.1-0.1,0.1-0.2c0,0,0.1,0.1,0.1,0.1C16.4,29.1,16.4,29.1,16.3,29.1z"/>
<path class="st0" d="M29,12.4c-0.1,0-0.1-0.1-0.1-0.1c0-0.1,0.1-0.1,0.1-0.2C28.9,12.3,29,12.3,29,12.4z"/>
<path class="st0" d="M20.9,2.2c-0.1,0-0.1,0.1-0.2,0.1c0,0,0-0.1,0-0.1C20.7,2.2,20.8,2.2,20.9,2.2z"/>
<path class="st0" d="M3.7,6.9c0,0,0.1,0.1,0.1,0.1C3.7,7,3.6,7,3.6,7.1C3.6,7,3.7,6.9,3.7,6.9z"/>
<path class="st0" d="M12,1.4c-0.1,0.2-0.2,0.1-0.3,0C11.8,1.4,11.9,1.4,12,1.4z"/>
<path class="st0" d="M3.6,23.1c0.1,0,0.2,0,0.3,0.1c0,0-0.1,0.1-0.1,0.1C3.7,23.2,3.6,23.2,3.6,23.1z"/>
<path class="st0" d="M17.5,1.2c-0.1,0.2-0.2,0.1-0.3-0.1C17.3,1.2,17.4,1.2,17.5,1.2z"/>
<path class="st0" d="M7,26.5c0,0,0.1-0.1,0.1-0.1c0,0,0.1,0.1,0.1,0.1c0,0-0.1,0-0.1,0.1C7,26.6,7,26.6,7,26.5z"/>
<path class="st0" d="M26.2,6.3c0,0-0.1,0.1-0.1,0.1c0-0.1,0-0.1,0-0.2C26.1,6.3,26.1,6.3,26.2,6.3z"/>
<path class="st0" d="M26.7,7.1c-0.1,0-0.1-0.1-0.2-0.1c0,0,0.1-0.1,0.1-0.1C26.6,7,26.7,7,26.7,7.1z"/>
<path class="st0" d="M24,4.2c-0.1,0-0.1,0-0.2,0c0,0,0.1-0.1,0.1-0.1C24,4.1,24,4.1,24,4.2z"/>
<path class="st0" d="M25.7,24.3c0-0.1,0-0.1,0-0.2c0,0,0.1,0,0.1,0C25.8,24.2,25.8,24.3,25.7,24.3z"/>
<path class="st0" d="M26.1,23.9c0-0.1,0-0.1,0-0.2c0,0,0.1,0.1,0.1,0.1C26.1,23.9,26.1,23.9,26.1,23.9z"/>
<path class="st0" d="M29.2,14c-0.1,0-0.1-0.1-0.2-0.1c0,0,0.1-0.1,0.1-0.1C29.2,13.8,29.2,13.9,29.2,14z"/>
<path class="st0" d="M26.6,23.3c0,0-0.1-0.1-0.1-0.1c0.1,0,0.1-0.1,0.2-0.1C26.7,23.1,26.6,23.2,26.6,23.3z"/>
<path class="st0" d="M29.1,16.4c0,0-0.1-0.1-0.1-0.1c0,0,0.1-0.1,0.1-0.1C29.2,16.3,29.2,16.3,29.1,16.4z"/>
<path class="st0" d="M2.8,21.9C3.1,21.9,3,22,3,22.1c0,0,0,0-0.1,0C2.9,22.1,2.9,22,2.8,21.9z"/>
<path class="st0" d="M8.1,27.3c0.1-0.1,0.2-0.1,0.2,0.1C8.3,27.4,8.2,27.3,8.1,27.3z"/>
<path class="st0" d="M2.9,8C3,8.1,3,8.1,3,8.2c0,0-0.1,0-0.1,0C2.9,8.1,2.9,8.1,2.9,8z"/>
<path class="st0" d="M24.4,4.5c-0.1,0-0.1,0-0.2,0c0,0,0.1-0.1,0.1-0.1C24.3,4.4,24.3,4.4,24.4,4.5z"/>
<path class="st0" d="M22,27.4c0-0.2,0.2-0.1,0.3-0.2C22.2,27.3,22.1,27.3,22,27.4z"/>
<path class="st0" d="M23.4,3.7c-0.1,0-0.1,0-0.2,0c0,0,0-0.1,0-0.1C23.3,3.6,23.4,3.6,23.4,3.7z"/>
<path class="st0" d="M8.3,2.7c0,0.1,0,0.2-0.2,0.1C8.2,2.8,8.3,2.8,8.3,2.7z"/>
<path class="st0" d="M24.2,25.9c0-0.2,0-0.2,0.2-0.2C24.3,25.8,24.2,25.8,24.2,25.9z"/>
<path class="st0" d="M22.2,2.9C22.1,2.9,22.1,2.9,22.2,2.9c-0.1,0-0.1,0-0.1-0.1C22.1,2.8,22.1,2.8,22.2,2.9z"/>
<path class="st0" d="M27.4,22.1c0,0,0-0.1-0.1-0.1c0,0,0.1,0,0.1,0C27.4,22,27.4,22,27.4,22.1z"/>
<path class="st0" d="M27.4,8.2c0,0-0.1,0-0.1,0c0,0,0-0.1,0.1-0.1C27.4,8.1,27.4,8.2,27.4,8.2z"/>
<path class="st0" d="M25.9,6c0,0-0.1,0-0.1,0c0,0,0-0.1,0-0.1C25.8,5.9,25.9,6,25.9,6z"/>
<path class="st0" d="M17.3,29C17.3,29,17.3,28.9,17.3,29c0.1-0.1,0.1,0,0.2,0C17.4,29,17.3,29,17.3,29z"/>
<path class="st0" d="M23.2,26.6c0,0,0.1-0.1,0.1-0.1C23.3,26.6,23.2,26.6,23.2,26.6z"/>
<path class="st0" d="M13.9,29.1C13.9,29.1,13.9,29.1,13.9,29.1c0.1,0,0.1,0,0.1,0C14,29.1,13.9,29.1,13.9,29.1z"/>
<path class="st0" d="M1.1,13.8C1.2,13.8,1.2,13.8,1.1,13.8c0,0.1,0,0.1,0,0.1C1.1,13.9,1.1,13.8,1.1,13.8z"/>
<path class="st0" d="M1.1,16.2C1.1,16.3,1.2,16.3,1.1,16.2c0.1,0.1,0,0.1,0,0.1C1.1,16.3,1.1,16.3,1.1,16.2z"/>
<path class="st0" d="M21.5,2.5C21.5,2.6,21.5,2.6,21.5,2.5C21.5,2.6,21.5,2.6,21.5,2.5C21.5,2.5,21.5,2.5,21.5,2.5z"/>
<path class="st0" d="M2.9,22.1C3,22.1,3,22.1,2.9,22.1C3,22.2,3,22.2,3,22.2C3,22.2,3,22.2,2.9,22.1z"/>
<path class="st0" d="M7.8,3C7.8,3.1,7.8,3.1,7.8,3C7.8,3.1,7.8,3.1,7.8,3z"/>
<path class="st0" d="M3.1,22.5C3.1,22.5,3.1,22.5,3.1,22.5C3.1,22.5,3.1,22.5,3.1,22.5z"/>
<path class="st0" d="M10.4,1.8C10.4,1.8,10.3,1.9,10.4,1.8C10.3,1.9,10.4,1.8,10.4,1.8z"/>
<path class="st0" d="M25.8,20.9c0.1-0.2,0.2-0.3,0.2-0.5c0.2,0.2,0.1,0.3,0,0.5C26,20.9,25.9,20.9,25.8,20.9z"/>
<path class="st0" d="M24.8,7.7c-0.1-0.2-0.3-0.3-0.4-0.5c0.1,0,0.2,0,0.2,0C24.5,7.4,25,7.4,24.8,7.7z"/>
<path class="st0" d="M21.2,25.6c0.2-0.1,0.4-0.2,0.6-0.3c0.1,0.3-0.2,0.3-0.4,0.4C21.3,25.7,21.2,25.6,21.2,25.6z"/>
<path class="st0" d="M25.5,21.5C25.5,21.5,25.5,21.4,25.5,21.5c0.1-0.2,0.1-0.3,0.2-0.4c0,0.1,0.1,0.1,0.1,0.2
	c0,0.1-0.1,0.2-0.2,0.3c0,0-0.1,0-0.1,0C25.5,21.6,25.5,21.5,25.5,21.5z"/>
<path class="st0" d="M25.7,9c-0.1-0.1-0.2-0.3-0.2-0.4c0,0,0-0.1,0.1-0.1c0.1,0.1,0.2,0.2,0.2,0.3C25.8,8.9,25.7,9,25.7,9z"/>
<path class="st0" d="M24.2,7c-0.1-0.1-0.3-0.3-0.4-0.4C24.2,6.6,24.2,6.6,24.2,7z"/>
<path class="st0" d="M23,5.8c-0.2-0.1-0.3-0.3-0.5-0.4c0.1,0,0.1-0.1,0.2,0C22.8,5.5,22.9,5.7,23,5.8z"/>
<path class="st0" d="M23.3,24c0.1-0.1,0.2-0.2,0.3-0.3c0,0.1,0,0.2,0.1,0.2C23.5,24,23.4,24,23.3,24z"/>
<path class="st0" d="M23.5,6.3c-0.1-0.1-0.2-0.2-0.2-0.2c0.1-0.1,0.3-0.1,0.4,0.1C23.6,6.1,23.5,6.2,23.5,6.3z"/>
<path class="st0" d="M6.7,23.8C6.8,23.9,6.9,24,7,24.1c-0.2,0.1-0.3,0-0.3-0.1C6.7,24,6.7,23.9,6.7,23.8z"/>
<path class="st0" d="M20.7,25.9c0.1-0.1,0.3-0.2,0.4-0.2C21,25.8,21,26,20.8,26C20.8,26,20.7,25.9,20.7,25.9z"/>
<path class="st0" d="M6.4,6.7C6.3,6.8,6.2,6.8,6.1,6.9C6,6.8,6.1,6.7,6.2,6.6C6.3,6.6,6.4,6.6,6.4,6.7z"/>
<path class="st0" d="M6.1,23.2c0.1,0.1,0.2,0.2,0.3,0.3c-0.1,0-0.1,0.1-0.2,0.1C6.1,23.5,6,23.4,6.1,23.2z"/>
<path class="st0" d="M7,6.1C6.9,6.2,6.8,6.2,6.7,6.3c0-0.1-0.1-0.1-0.1-0.2C6.8,6.1,6.8,5.9,7,6.1z"/>
<path class="st0" d="M4.8,21.4c0,0.1,0.1,0.1,0.1,0.2c-0.2,0-0.4-0.3-0.3-0.6C4.7,21.2,4.7,21.3,4.8,21.4z"/>
<path class="st0" d="M10.9,26.5c0.1,0,0.3,0.1,0.4,0.1c-0.1,0-0.2,0-0.3,0.1C11,26.6,10.9,26.5,10.9,26.5z"/>
<path class="st0" d="M8.6,25.3c0.2,0.1,0.4,0.2,0.6,0.3C9,25.7,8.7,25.5,8.6,25.3z"/>
<path class="st0" d="M24,23.3c0.1,0,0.1-0.1,0.2-0.1c0,0.4,0,0.4-0.3,0.3C23.9,23.4,24,23.4,24,23.3z"/>
<path class="st0" d="M25.9,9.5c0-0.1-0.1-0.2-0.1-0.3c0.1,0,0.1,0,0.2,0c0,0.1,0,0.2,0,0.3C26,9.5,25.9,9.5,25.9,9.5z"/>
<path class="st0" d="M4.3,20.6c0.1,0.1,0.1,0.3,0.2,0.4c-0.1,0-0.3,0-0.3-0.2C4.3,20.7,4.3,20.6,4.3,20.6z"/>
<path class="st0" d="M9.3,25.7c0.1,0.1,0.3,0.1,0.4,0.2c-0.1,0-0.1,0.1-0.2,0.1C9.4,25.9,9.3,25.8,9.3,25.7z"/>
<path class="st0" d="M4.5,9.2C4.5,9.3,4.4,9.5,4.3,9.6C4.2,9.3,4.3,9.2,4.5,9.2z"/>
<path class="st0" d="M26.5,19.4c0-0.1,0.1-0.2,0.1-0.3c0,0.1,0.1,0.2,0.1,0.2C26.6,19.3,26.6,19.3,26.5,19.4z"/>
<path class="st0" d="M18.4,3.4c-0.1,0-0.3-0.1-0.4-0.1C18.2,3.1,18.3,3.1,18.4,3.4z"/>
<path class="st0" d="M19.1,26.6c0.1,0,0.3-0.1,0.4-0.1C19.4,26.7,19.3,26.7,19.1,26.6z"/>
<path class="st0" d="M26.6,11.1c0-0.1-0.1-0.2-0.1-0.3c0.1,0,0.1,0.1,0.2,0.1C26.7,11,26.6,11,26.6,11.1z"/>
<path class="st0" d="M22.8,24.5c0.1-0.1,0.2-0.2,0.3-0.2C23.1,24.5,23,24.6,22.8,24.5z"/>
<path class="st0" d="M26.2,10.1c-0.1-0.1-0.1-0.2-0.2-0.3c0.1,0,0.2,0.1,0.3,0.1C26.3,10,26.3,10.1,26.2,10.1z"/>
<path class="st0" d="M20.3,4.1c-0.1,0-0.1-0.1-0.2-0.1c0.1,0,0.1-0.1,0.2-0.1C20.3,4,20.3,4.1,20.3,4.1z"/>
<path class="st0" d="M22.1,25c0.1-0.1,0.2-0.1,0.3-0.2C22.4,25,22.4,25.2,22.1,25z"/>
<path class="st0" d="M27.2,15.8c0-0.1,0-0.2,0.1-0.3c0.1,0.1,0.1,0.1,0.2,0.2C27.4,15.7,27.3,15.8,27.2,15.8z"/>
<path class="st0" d="M22.5,24.8c0.1-0.1,0.2-0.2,0.3-0.2C22.9,24.8,22.6,24.7,22.5,24.8z"/>
<path class="st0" d="M17,3.1C17,3.1,17,3.1,17,3.1c-0.1,0-0.2,0-0.3,0c0,0,0,0,0,0C16.8,3,16.9,3,16.9,2.9C17,3,17,3.1,17,3.1z"/>
<path class="st0" d="M21.1,4.5c-0.1,0-0.2-0.1-0.3-0.1c0.1,0,0.1-0.1,0.2-0.1C21,4.3,21,4.4,21.1,4.5z"/>
<path class="st0" d="M16.6,27.1c0,0.1-0.1,0.1-0.1,0.2c0,0-0.1-0.1-0.1-0.1l0,0C16.4,27.1,16.5,27.1,16.6,27.1
	C16.6,27.1,16.6,27.1,16.6,27.1z"/>
<path class="st0" d="M18.8,3.5c-0.1,0-0.2,0-0.3-0.1c0.1,0,0.1-0.1,0.2-0.1C18.7,3.4,18.8,3.5,18.8,3.5z"/>
<path class="st0" d="M27.3,14.6c0-0.1,0-0.2,0-0.3c0.1,0,0.1,0.1,0.2,0.1C27.4,14.5,27.3,14.6,27.3,14.6z"/>
<path class="st0" d="M3,15.5c0,0.1,0,0.2,0,0.3c-0.1,0-0.1-0.1-0.2-0.1C2.9,15.6,3,15.6,3,15.5z"/>
<path class="st0" d="M5.8,22.8c0.1,0.1,0.1,0.1,0.2,0.2c0,0-0.1,0.1-0.1,0.1C5.8,23,5.8,22.9,5.8,22.8z"/>
<path class="st0" d="M26.1,20.1C26.1,20.1,26.2,20.1,26.1,20.1c0.1,0,0.1,0,0.2,0.1c-0.1,0-0.1,0.1-0.2,0.1c0,0,0,0,0-0.1
	C26.1,20.2,26.1,20.2,26.1,20.1z"/>
<path class="st0" d="M24.4,22.9c0.1-0.1,0.1-0.1,0.2-0.2c0,0.1,0,0.1,0,0.2C24.5,22.9,24.5,22.9,24.4,22.9z"/>
<path class="st0" d="M27.1,17c0-0.1,0-0.1,0.1-0.2c0,0,0.1,0.1,0.1,0.1C27.3,16.9,27.2,16.9,27.1,17z"/>
<path class="st0" d="M17.7,3.2c-0.1,0-0.1,0-0.2-0.1c0,0,0.1-0.1,0.1-0.1C17.6,3.1,17.7,3.2,17.7,3.2z"/>
<path class="st0" d="M16.7,27.1c0.1,0,0.2,0,0.3,0C17,27.4,16.8,27.2,16.7,27.1z"/>
<path class="st0" d="M27.2,13.9c0-0.1,0-0.1-0.1-0.2c0.1,0,0.1,0.1,0.2,0.1C27.3,13.8,27.3,13.8,27.2,13.9z"/>
<path class="st0" d="M27.2,13.4c0-0.1,0-0.1-0.1-0.2c0.1,0,0.1,0.1,0.2,0.1C27.3,13.4,27.2,13.4,27.2,13.4z"/>
<path class="st0" d="M22.3,5.3c-0.1,0-0.1-0.1-0.2-0.1c0,0,0.1-0.1,0.1-0.1C22.3,5.2,22.3,5.2,22.3,5.3z"/>
<path class="st0" d="M3.2,13.2c0,0.1,0,0.1,0,0.2c0,0-0.1-0.1-0.1-0.1C3.1,13.3,3.1,13.2,3.2,13.2z"/>
<path class="st0" d="M25.1,8.1C25,8,25,8,24.9,7.9c0.1,0,0.2,0,0.3,0.1C25.1,8,25.1,8.1,25.1,8.1z"/>
<path class="st0" d="M3.7,19.1c0,0.1,0,0.1,0.1,0.2c-0.1,0-0.1,0-0.2,0C3.6,19.2,3.7,19.2,3.7,19.1z"/>
<path class="st0" d="M27.2,16.5c0-0.1,0-0.1,0.1-0.2c0,0,0.1,0.1,0.1,0.1C27.3,16.4,27.2,16.5,27.2,16.5z"/>
<path class="st0" d="M3.1,16.7c0,0.1,0,0.1,0.1,0.2c-0.1,0-0.1-0.1-0.2-0.1C3,16.8,3.1,16.8,3.1,16.7z"/>
<path class="st0" d="M5.4,7.9c0,0.1-0.1,0.1-0.1,0.2c0,0-0.1-0.1-0.1-0.1C5.2,7.9,5.3,7.9,5.4,7.9z"/>
<path class="st0" d="M4.9,8.5C4.9,8.6,4.8,8.7,4.8,8.8C4.6,8.6,4.7,8.5,4.9,8.5z"/>
<path class="st0" d="M5.2,22.1c0,0,0.1,0.1,0.1,0.1c0,0,0,0.1,0,0.1c-0.1,0-0.1-0.1-0.2-0.1C5.2,22.1,5.2,22.1,5.2,22.1z"/>
<path class="st0" d="M13.3,27.1c0.1,0,0.1,0,0.2,0c0,0-0.1,0.1-0.1,0.1C13.4,27.2,13.3,27.1,13.3,27.1z"/>
<path class="st0" d="M3,14.4c0,0.1,0,0.1,0,0.2c0,0-0.1,0-0.1-0.1C2.9,14.5,3,14.4,3,14.4z"/>
<path class="st0" d="M7.6,5.7c-0.1,0-0.1,0.1-0.2,0.1c0,0,0-0.1,0-0.1C7.4,5.7,7.5,5.7,7.6,5.7z"/>
<path class="st0" d="M13.7,27.1c0.1,0,0.1,0,0.2,0.1C13.8,27.3,13.8,27.3,13.7,27.1z"/>
<path class="st0" d="M5.9,7.3c0,0-0.1,0.1-0.1,0.1C5.8,7.3,5.8,7.2,5.9,7.3C5.8,7.2,5.8,7.2,5.9,7.3z"/>
<path class="st0" d="M7.4,24.4c0,0,0.1,0.1,0.1,0.1C7.4,24.5,7.3,24.5,7.4,24.4C7.3,24.4,7.3,24.4,7.4,24.4z"/>
<path class="st0" d="M24.6,22.7c0.1-0.1,0.1-0.1,0.2-0.2C24.8,22.6,24.8,22.7,24.6,22.7z"/>
<path class="st0" d="M18.6,26.7c0.1,0,0.1,0,0.2-0.1C18.7,26.8,18.7,26.9,18.6,26.7z"/>
<path class="st0" d="M25,22.1C25,22.1,25,22.1,25,22.1c0.1,0,0.1,0,0.1,0.1C25.1,22.2,25,22.2,25,22.1C25,22.2,25,22.1,25,22.1z"/>
<path class="st0" d="M27,12.6C27,12.6,27,12.6,27,12.6c0.1,0,0.1,0,0.2,0c0,0-0.1,0-0.1,0.1C27,12.7,27,12.6,27,12.6z"/>
<path class="st0" d="M27,17.6C27,17.6,27,17.6,27,17.6c0-0.1,0-0.1,0-0.2c0,0,0.1,0,0.1,0.1C27.1,17.5,27.1,17.6,27,17.6z"/>
<path class="st0" d="M20.2,26.1c0.1,0,0.1-0.1,0.2-0.1C20.3,26.2,20.3,26.3,20.2,26.1z"/>
<path class="st0" d="M4.1,20.1c0,0.1,0,0.1,0.1,0.2c0,0-0.1,0-0.1,0C4.1,20.2,4.1,20.2,4.1,20.1z"/>
<path class="st0" d="M17.1,27.1C17.1,27.1,17.1,27,17.1,27.1c0.1-0.1,0.2-0.1,0.2-0.1l0,0C17.2,27,17.2,27.1,17.1,27.1z"/>
<path class="st0" d="M4.2,9.9c0,0.1,0,0.1-0.1,0.2C4.1,10,4.1,10,4.2,9.9C4.1,9.9,4.1,9.9,4.2,9.9z"/>
<path class="st0" d="M26.7,18.7c0,0,0-0.1,0-0.1c0,0,0.1,0,0.1,0.1C26.8,18.6,26.8,18.6,26.7,18.7z"/>
<path class="st0" d="M17.5,27c0.1,0,0.1,0,0.2,0C17.6,27,17.6,27,17.5,27C17.5,27,17.5,27,17.5,27z"/>
<path class="st0" d="M5.6,7.5c0,0-0.1,0.1-0.1,0.1C5.6,7.6,5.6,7.6,5.6,7.5z"/>
<path class="st0" d="M26.8,11.6c0,0,0-0.1-0.1-0.1C26.8,11.5,26.8,11.5,26.8,11.6C26.8,11.6,26.8,11.6,26.8,11.6z"/>
<path class="st0" d="M26.8,18.3c0,0,0-0.1,0.1-0.1c0,0,0.1,0,0.1,0.1C26.9,18.2,26.9,18.3,26.8,18.3z"/>
<path class="st0" d="M26.9,12c0,0,0-0.1-0.1-0.1C26.9,11.9,26.9,11.9,26.9,12C26.9,12,26.9,12,26.9,12z"/>
<path class="st0" d="M26.6,19c0,0,0.1-0.1,0.1-0.1C26.7,18.9,26.7,18.9,26.6,19z"/>
<path class="st0" d="M8.1,24.9C8.1,24.9,8.1,25,8.1,24.9C8.1,25,8.1,25,8.1,24.9C8,25,8.1,25,8.1,24.9z"/>
<path class="st0" d="M25.9,9.5c0,0,0.1,0,0.1,0c0,0.1,0,0.1,0,0.2C26,9.6,25.9,9.6,25.9,9.5z"/>
<path class="st0" d="M7.6,24.6C7.6,24.6,7.7,24.6,7.6,24.6C7.7,24.7,7.6,24.7,7.6,24.6C7.6,24.7,7.6,24.6,7.6,24.6z"/>
<path class="st0" d="M3.5,11.5c0,0,0,0.1,0,0.1C3.5,11.6,3.5,11.6,3.5,11.5C3.5,11.5,3.5,11.5,3.5,11.5z"/>
<path class="st0" d="M3.4,11.9c0,0,0,0.1,0,0.1C3.4,12,3.4,12,3.4,11.9C3.4,11.9,3.4,11.9,3.4,11.9z"/>
<path class="st0" d="M3.3,12.6c0,0,0,0.1,0,0.1C3.2,12.7,3.2,12.7,3.3,12.6C3.2,12.6,3.2,12.6,3.3,12.6z"/>
<path class="st0" d="M19.2,3.7c0,0-0.1,0-0.1,0C19.2,3.7,19.2,3.7,19.2,3.7z"/>
<path class="st0" d="M12.1,3.3c0,0-0.1,0-0.1,0C12,3.3,12,3.3,12.1,3.3C12,3.3,12.1,3.3,12.1,3.3z"/>
<path class="st0" d="M3.3,17.4c0,0,0,0.1,0,0.1C3.2,17.5,3.2,17.5,3.3,17.4C3.2,17.5,3.2,17.5,3.3,17.4z"/>
<path class="st0" d="M23.1,5.9C23.1,5.9,23.1,5.9,23.1,5.9C23.1,5.9,23.1,5.9,23.1,5.9z"/>
<path class="st0" d="M16.5,3.1C16.5,3.1,16.5,3,16.5,3.1C16.5,3,16.5,3.1,16.5,3.1z"/>
<path class="st0" d="M24.3,23C24.3,23,24.3,23,24.3,23C24.3,23,24.3,23,24.3,23C24.3,23,24.3,23,24.3,23z"/>
<path class="st0" d="M21.5,4.8C21.5,4.8,21.5,4.7,21.5,4.8C21.5,4.7,21.5,4.8,21.5,4.8z"/>
<path class="st0" d="M26.1,20.2C26.1,20.3,26.1,20.3,26.1,20.2C26.1,20.3,26.1,20.3,26.1,20.2C26.1,20.3,26.1,20.3,26.1,20.2z"/>
<path class="st0" d="M15.8,21.5c-0.6,0.1-1.2,0.2-1.8-0.2c-0.2-0.2-0.3-0.3-0.3-0.6c0-2.3,0-4.7,0-7c0-0.3,0.2-0.5,0.4-0.7
	c0.6-0.4,1.2-0.3,1.8-0.1c0.1,0.1,0.2,0.1,0.3,0.2c0.3,0.2,0.3,0.4,0.3,0.7c0,2.3,0,4.7,0,7C16.4,21.1,16.1,21.3,15.8,21.5z"/>
<path class="st0" d="M15.4,11c-0.4,0-0.8,0-1.2-0.2c-0.5-0.4-0.8-0.9-0.6-1.5c0.1-0.2,0.3-0.5,0.5-0.6c0.8-0.6,2.1-0.3,2.4,0.7
	c0,0.1,0,0.2,0.1,0.3c0,0,0,0.1,0,0.1c0,0.2-0.1,0.3-0.1,0.5c-0.2,0.4-0.6,0.6-1,0.8C15.5,11,15.5,11,15.4,11z"/>
</svg>
