<?xml version="1.0" encoding="utf-8"?>
<!-- Generator: Adobe Illustrator 27.6.1, SVG Export Plug-In . SVG Version: 6.00 Build 0)  -->
<svg version="1.1" id="Layer_1" xmlns="http://www.w3.org/2000/svg" xmlns:xlink="http://www.w3.org/1999/xlink" x="0px" y="0px"
	 width="30px" height="30px" viewBox="0 0 30 30" style="enable-background:new 0 0 30 30;" xml:space="preserve">
<style type="text/css">
	.st0{fill:#FFFFFF;}
</style>
<path class="st0" d="M3.1,6.9C3.1,6.9,3.1,6.9,3.1,6.9C3.1,6.9,3.1,6.9,3.1,6.9c0.1-0.1,0.1-0.2,0.1-0.3c0,0,0,0,0,0
	c0,0,0-0.1,0-0.1c0,0,0,0,0,0c0.2-0.3,0.3-0.6,0.5-0.9c0,0,0-0.1,0.1-0.1c0.3-0.4,0.6-0.7,0.9-1C5,4.1,5.4,3.9,5.7,3.6c0,0,0,0,0,0
	c0,0,0.1,0,0.1-0.1c0,0,0,0,0,0c0,0,0,0,0,0c0,0,0,0,0,0c2.4-1.2,5.1-1,7.7-1c1.4,0,2.8,0,4.2,0c0.6,0,1.3,0,1.9,0
	c0.3,0,0.7,0,1,0.1c0.3,0,0.6,0.1,0.9,0.1c0,0,0,0,0,0c0,0,0.1,0,0.1,0c0,0,0,0,0,0C23,3,24.1,3.4,25.1,4.2c0.5,0.4,0.9,0.9,1.2,1.4
	c0.4,0.6,0.5,1.2,0.8,1.8c0,0,0,0,0,0c0,0.2,0.1,0.5,0.2,0.7c0.1,0.3,0.1,0.6,0.1,0.9c0.1,0.5,0.1,1,0.1,1.5c0,1.2,0,2.4,0,3.6
	c0,1.2,0,2.5,0,3.7c0,1.2,0,2.4-0.2,3.6c-0.2,1.3-0.6,2.4-1.4,3.4c0,0,0,0,0,0c0,0-0.1,0.1-0.1,0.1c0,0,0,0,0,0
	c-0.1,0.2-0.3,0.3-0.4,0.4c-0.2,0.2-0.4,0.3-0.6,0.5c0,0,0,0,0,0c-0.5,0.3-0.9,0.6-1.5,0.9c-0.5,0.2-1.1,0.3-1.6,0.5c0,0,0,0,0,0
	c-2.3,0.3-4.7,0.2-7.1,0.2c-1.2,0-2.4,0-3.5,0c-1.1,0-2.3,0-3.4-0.3c-1.1-0.3-2.3-0.8-3.1-1.7c-0.1-0.1-0.1-0.1-0.2-0.2
	c-0.1-0.1-0.2-0.2-0.3-0.4c-0.1-0.1-0.2-0.3-0.3-0.4c-0.2-0.3-0.4-0.6-0.6-0.9c-0.3-0.8-0.5-1.5-0.7-2.3c0,0,0,0,0,0
	c-0.2-2-0.1-4-0.1-6c0-1,0-2.1,0-3.1c0-0.5,0-0.9,0-1.4c0-0.4,0.1-0.9,0.1-1.4c0,0,0,0,0,0c0-0.3,0.1-0.7,0.1-1c0,0,0,0,0,0
	c0,0,0-0.1,0-0.1c0,0,0,0,0,0c0-0.1,0-0.1,0-0.2c0,0,0,0,0-0.1C2.8,7.6,2.9,7.3,3.1,6.9C3,7,3,7,3.1,6.9z M22.5,5.3
	C22.5,5.3,22.5,5.2,22.5,5.3c-0.1,0-0.1,0-0.1,0c0,0,0,0-0.1,0c0,0-0.1,0-0.1,0C21.9,5,21.4,4.9,21,4.9c0,0,0,0-0.1,0
	c-2.2-0.3-4.5-0.1-6.8-0.1c-1.1,0-2.2,0-3.3,0c-0.5,0-1.1,0-1.7,0.1C8.7,4.9,8.2,5,7.7,5.2c0,0,0,0,0,0c-0.1,0-0.2,0.1-0.3,0.1
	c0,0,0,0,0,0c-0.9,0.4-1.4,1.1-1.9,2c0,0,0,0,0,0C5.2,7.7,5,8.1,4.9,8.5c0,0,0,0,0,0c0,0.2-0.1,0.4-0.1,0.6c0,0,0,0,0,0
	c0,0.1-0.1,0.1-0.1,0.2c0,0.2,0,0.3,0,0.5c0,0.4-0.1,0.8-0.1,1.1c0,1.1,0,2.2,0,3.3c0,1.7,0,3.4,0,5.1c0,0.3,0,0.6,0.1,0.9
	c0,0.2,0,0.3,0,0.5c0,0,0,0,0,0.1c0,0,0,0.1,0,0.1c0,0.2,0,0.3,0.1,0.5c0,0,0,0.1,0,0.1c0.2,1.1,0.8,2.2,1.8,2.8
	c0.9,0.6,2,0.8,3.1,0.9c1.3,0.1,2.5,0.1,3.8,0.1c2.4,0,4.9,0,7.3-0.1c0,0,0,0,0.1,0c0.2,0,0.4-0.1,0.6-0.1c0,0,0,0,0.1,0
	c0,0,0,0,0.1,0c0,0,0,0,0,0c0,0,0,0,0,0c0.2-0.1,0.4-0.1,0.5-0.2c0,0,0,0,0.1-0.1c0,0,0.1,0,0.1,0c0.2-0.1,0.3-0.2,0.5-0.2
	c0,0,0,0,0,0c0,0,0,0,0,0c0,0,0,0,0,0c0.5-0.3,0.9-0.7,1.2-1.2c0,0,0.1-0.1,0.1-0.1c0,0,0-0.1,0.1-0.1c0.1-0.1,0.1-0.2,0.2-0.4
	c0,0,0,0,0,0c0.1-0.2,0.2-0.5,0.2-0.7c0-0.1,0.1-0.3,0.1-0.4c0,0,0,0,0,0c0,0,0-0.1,0-0.1c0-0.1,0-0.2,0-0.3c0,0,0,0,0,0
	c0.1-0.4,0.1-1,0.1-1.4c0-0.5,0-1,0-1.5c0-1,0-2.1,0-3.1c0-1,0-2.1,0-3.1c0-0.5,0-1,0-1.5c0-0.4-0.1-0.9-0.1-1.3c0,0,0,0,0,0
	c0-0.1,0-0.1,0-0.2c0-0.1,0-0.2,0-0.2c0,0,0,0,0-0.1c-0.2-0.8-0.4-1.4-0.9-2.1c0,0,0,0,0,0c-0.1-0.1-0.2-0.2-0.3-0.3
	c-0.1-0.1-0.1-0.1-0.2-0.2c0,0,0,0-0.1,0C23.2,5.6,22.9,5.4,22.5,5.3z"/>
<path class="st0" d="M4.5,25.3c0.1,0.1,0.1,0.1,0.2,0.2C4.5,25.5,4.5,25.5,4.5,25.3z"/>
<path class="st0" d="M3.8,5.5c0,0,0,0.1-0.1,0.1C3.7,5.6,3.7,5.5,3.8,5.5z"/>
<path class="st0" d="M2.8,8C2.7,8,2.7,8,2.8,8C2.7,8,2.7,8,2.8,8z"/>
<path class="st0" d="M2.7,8.2C2.7,8.2,2.7,8.2,2.7,8.2C2.7,8.2,2.7,8.2,2.7,8.2C2.7,8.2,2.7,8.2,2.7,8.2z"/>
<path class="st0" d="M2.6,9.4C2.6,9.4,2.6,9.4,2.6,9.4C2.6,9.4,2.6,9.4,2.6,9.4z"/>
<path class="st0" d="M2.6,21.3C2.6,21.3,2.6,21.3,2.6,21.3C2.6,21.3,2.6,21.3,2.6,21.3z"/>
<path class="st0" d="M24.9,25.9C24.9,25.9,24.9,25.9,24.9,25.9C24.9,25.9,24.9,25.9,24.9,25.9z"/>
<path class="st0" d="M21.8,27.3C21.8,27.3,21.8,27.3,21.8,27.3C21.8,27.3,21.8,27.3,21.8,27.3z"/>
<path class="st0" d="M3.2,6.5C3.2,6.5,3.2,6.5,3.2,6.5C3.2,6.5,3.2,6.5,3.2,6.5z"/>
<path class="st0" d="M3.2,6.6C3.2,6.6,3.2,6.6,3.2,6.6C3.2,6.6,3.2,6.6,3.2,6.6z"/>
<path class="st0" d="M5.7,3.6C5.7,3.6,5.7,3.6,5.7,3.6C5.7,3.6,5.7,3.6,5.7,3.6z"/>
<path class="st0" d="M3.1,6.9C3.1,6.9,3.1,6.9,3.1,6.9C3.1,6.9,3.1,6.9,3.1,6.9z"/>
<path class="st0" d="M3.1,6.9C3,7,3,7,3.1,6.9C3,7,3,7,3.1,6.9z"/>
<path class="st0" d="M5.9,3.5C5.9,3.5,5.9,3.5,5.9,3.5C5.9,3.5,5.9,3.5,5.9,3.5z"/>
<path class="st0" d="M5.9,3.5C5.9,3.5,5.9,3.5,5.9,3.5C5.9,3.5,5.9,3.5,5.9,3.5z"/>
<path class="st0" d="M21.8,2.7C21.8,2.7,21.8,2.7,21.8,2.7C21.8,2.7,21.8,2.7,21.8,2.7z"/>
<path class="st0" d="M26,24.8C26,24.8,26,24.8,26,24.8C26,24.8,26,24.8,26,24.8z"/>
<path class="st0" d="M25.9,25C25.9,24.9,25.9,24.9,25.9,25C25.9,24.9,25.9,24.9,25.9,25z"/>
<path class="st0" d="M27.1,7.4C27.1,7.4,27.1,7.4,27.1,7.4C27.1,7.4,27.1,7.4,27.1,7.4C27.1,7.4,27.1,7.4,27.1,7.4z"/>
<path class="st0" d="M21.6,2.7C21.6,2.7,21.6,2.7,21.6,2.7C21.6,2.7,21.6,2.7,21.6,2.7z"/>
<path class="st0" d="M2.7,8.4C2.7,8.4,2.6,8.4,2.7,8.4C2.6,8.4,2.7,8.4,2.7,8.4z"/>
<path class="st0" d="M24.4,23.2c0-0.1,0-0.1,0.1-0.1C24.4,23.2,24.4,23.2,24.4,23.2z"/>
<path class="st0" d="M25.1,8.6C25.1,8.6,25.1,8.5,25.1,8.6C25.1,8.5,25.1,8.6,25.1,8.6z"/>
<path class="st0" d="M25.1,21C25.1,21,25.1,21,25.1,21C25.1,21,25.1,21,25.1,21z"/>
<path class="st0" d="M22.3,24.8C22.4,24.8,22.4,24.8,22.3,24.8C22.4,24.8,22.4,24.8,22.3,24.8z"/>
<path class="st0" d="M21,4.9C21,4.9,21,4.8,21,4.9C21,4.8,21,4.9,21,4.9z"/>
<path class="st0" d="M25.1,21.5C25.1,21.4,25,21.4,25.1,21.5C25.1,21.4,25.1,21.4,25.1,21.5C25.1,21.4,25.1,21.4,25.1,21.5z"/>
<path class="st0" d="M21.7,25C21.7,25,21.7,25,21.7,25C21.7,25,21.7,25,21.7,25z"/>
<path class="st0" d="M22.4,5.2C22.4,5.2,22.4,5.2,22.4,5.2C22.4,5.2,22.4,5.2,22.4,5.2z"/>
<path class="st0" d="M4.8,20.7C4.8,20.7,4.8,20.8,4.8,20.7C4.8,20.8,4.8,20.7,4.8,20.7z"/>
<path class="st0" d="M20.9,25.2C21,25.1,21,25.1,20.9,25.2C21,25.1,21,25.1,20.9,25.2z"/>
<path class="st0" d="M4.9,21.4C4.9,21.4,4.9,21.4,4.9,21.4C4.9,21.4,4.9,21.4,4.9,21.4z"/>
<path class="st0" d="M25.2,9C25.1,9,25.1,9,25.2,9C25.1,9,25.1,9,25.2,9z"/>
<path class="st0" d="M23.6,5.9C23.6,5.9,23.6,5.9,23.6,5.9C23.6,5.9,23.6,5.9,23.6,5.9z"/>
<path class="st0" d="M4.9,9.2C4.9,9.2,4.8,9.2,4.9,9.2C4.8,9.2,4.9,9.2,4.9,9.2z"/>
<path class="st0" d="M24.1,6.4C24.1,6.4,24.1,6.4,24.1,6.4C24.1,6.4,24.1,6.4,24.1,6.4z"/>
<path class="st0" d="M4.9,8.5C4.9,8.5,4.9,8.6,4.9,8.5C4.9,8.6,4.9,8.5,4.9,8.5z"/>
<path class="st0" d="M7.7,5.2C7.6,5.2,7.6,5.2,7.7,5.2C7.6,5.2,7.6,5.2,7.7,5.2z"/>
<path class="st0" d="M21.8,25C21.8,25,21.8,25,21.8,25C21.8,25,21.8,25,21.8,25C21.8,25,21.8,25,21.8,25z"/>
<path class="st0" d="M7.3,5.3C7.3,5.3,7.3,5.3,7.3,5.3C7.3,5.3,7.3,5.3,7.3,5.3z"/>
<path class="st0" d="M22.5,5.3C22.5,5.3,22.5,5.2,22.5,5.3C22.5,5.2,22.5,5.3,22.5,5.3z"/>
<path class="st0" d="M24.7,22.6C24.7,22.6,24.7,22.6,24.7,22.6C24.7,22.6,24.7,22.6,24.7,22.6z"/>
<path class="st0" d="M23.1,24.4C23.1,24.4,23.1,24.4,23.1,24.4C23.1,24.4,23.1,24.4,23.1,24.4z"/>
<path class="st0" d="M23,24.5C23,24.5,23,24.5,23,24.5C23,24.5,23,24.5,23,24.5z"/>
<path class="st0" d="M5.3,7.3C5.3,7.3,5.3,7.3,5.3,7.3C5.3,7.3,5.3,7.3,5.3,7.3z"/>
<path class="st0" d="M16.6,21.2C16.6,21.2,16.6,21.2,16.6,21.2c-0.1,0-0.1,0-0.1,0c-0.7,0.2-1.4,0.2-2.1,0.2c-0.1-0.1-0.2,0-0.4,0
	c-0.1,0-0.3,0-0.4-0.1c-0.3-0.1-0.6-0.2-0.8-0.2c0,0,0,0,0,0c0,0-0.1,0-0.1,0c0,0,0,0,0,0c0,0-0.1,0-0.1,0c0,0,0,0,0,0
	c0,0-0.1,0-0.1-0.1c0,0,0,0-0.1,0c-0.1-0.1-0.2-0.1-0.3-0.2c0,0,0,0,0,0c0,0,0,0,0,0c0,0,0,0-0.1,0c0,0,0,0,0,0c0,0,0,0,0,0
	c0,0,0,0,0,0c0,0,0,0,0,0c0,0,0,0,0,0c0,0,0,0,0,0c0,0-0.1,0-0.1-0.1c0,0,0,0,0,0c-0.2-0.2-0.5-0.3-0.7-0.5c0,0,0,0-0.1-0.1
	c0,0,0,0,0,0c0,0,0,0,0,0c-0.2-0.2-0.4-0.4-0.7-0.7c0,0-0.1,0-0.1-0.1c0,0,0-0.1-0.1-0.1c-0.2-0.2-0.3-0.5-0.5-0.7c0,0,0,0,0,0
	c0,0,0,0,0-0.1c0,0-0.1-0.1-0.1-0.1c0-0.1,0-0.1-0.1-0.2c0,0,0-0.1-0.1-0.1c0,0,0-0.1-0.1-0.1c0,0,0-0.1,0-0.1c0,0,0,0,0,0
	c0,0,0-0.1,0-0.1c0,0,0,0,0,0c0,0,0-0.1,0-0.1c0,0,0,0,0,0c-0.1-0.3-0.2-0.6-0.3-0.8c-0.1-0.3-0.1-0.6-0.1-0.9c-0.1-0.6,0-1.3,0.1-2
	c0,0,0,0,0-0.1c0,0,0-0.1,0-0.1c0,0,0,0,0,0c0.1-0.2,0.1-0.4,0.2-0.6c0,0,0,0,0,0c0,0,0-0.1,0-0.1c0,0,0,0,0,0c0,0,0-0.1,0-0.1
	c0,0,0,0,0,0c0,0,0-0.1,0-0.1c0,0,0-0.1,0.1-0.1c0-0.1,0.1-0.2,0.1-0.3c0,0,0,0,0-0.1c0,0,0.1-0.1,0.1-0.1c0.2-0.3,0.4-0.5,0.5-0.8
	c0,0,0-0.1,0.1-0.1c0,0,0.1,0,0.1-0.1c0.2-0.2,0.5-0.5,0.7-0.7c0,0,0,0,0.1-0.1c0.2-0.2,0.5-0.3,0.7-0.5c0,0,0,0,0,0
	c0,0,0.1,0,0.1-0.1c0,0,0,0,0,0c0,0,0,0,0,0c0,0,0,0,0,0c0,0,0,0,0,0c0,0,0.1,0,0.1-0.1c0.1-0.1,0.2-0.1,0.3-0.2c0,0,0.1,0,0.1-0.1
	C12.6,9,12.8,9,12.9,8.9c0.1,0,0.3-0.1,0.4-0.1c0,0,0,0,0.1,0c0,0,0.1,0,0.1,0c0,0,0,0,0.1,0c0.2,0,0.4-0.1,0.6-0.1
	c0.2,0,0.4,0,0.7,0c0.4,0,0.8,0,1.2,0c0.3,0.1,0.7,0.1,1,0.3c0.3,0.1,0.7,0.3,1,0.4c0.3,0.3,0.7,0.5,1,0.7c0.3,0.2,0.5,0.5,0.8,0.7
	c0.5,0.6,0.9,1.3,1.2,2c0.3,0.8,0.4,1.7,0.4,2.6c0,0.2-0.1,0.4-0.1,0.6c0,0.2,0,0.4-0.1,0.5c-0.1,0.4-0.3,0.9-0.5,1.3c0,0,0,0,0,0
	c-0.1,0.2-0.2,0.3-0.2,0.5c0,0,0,0,0,0c0,0,0,0.1-0.1,0.1c0,0,0,0,0,0c-0.2,0.2-0.3,0.5-0.5,0.7c-0.2,0.2-0.4,0.4-0.6,0.6
	c0,0,0,0,0,0c-0.3,0.2-0.6,0.5-0.9,0.7c0,0,0,0,0,0c-0.1,0.1-0.3,0.2-0.4,0.2c0,0,0,0,0,0c-0.4,0.2-0.7,0.3-1.1,0.5
	C16.9,21.2,16.8,21.2,16.6,21.2C16.7,21.2,16.6,21.2,16.6,21.2z M18.8,16.7c0.1-0.3,0.2-0.6,0.3-0.8c0,0,0,0,0,0
	c0.3-0.9,0-1.9-0.4-2.8c-0.4-0.9-1.2-1.5-2-1.9c-1.8-0.8-4.2-0.2-5.2,1.6c0,0,0,0,0,0c-0.2,0.3-0.4,0.7-0.5,1.1c0,0,0,0,0,0
	c-0.1,0.4-0.2,0.9-0.1,1.3c0,0.4,0.1,0.7,0.2,1.1c0.2,0.7,0.7,1.4,1.3,1.9c1.4,1.1,3.2,1.3,4.7,0.5c0,0,0,0,0,0
	c0.2-0.2,0.5-0.3,0.7-0.5c0,0,0,0,0,0c0.1-0.1,0.2-0.2,0.4-0.4c0,0,0,0,0,0c0.2-0.3,0.3-0.5,0.5-0.8C18.7,16.9,18.7,16.8,18.8,16.7
	C18.8,16.7,18.8,16.7,18.8,16.7z"/>
<path class="st0" d="M20.5,7.4c0.2-0.3,0.6-0.5,0.9-0.6c0.4-0.1,0.8,0.1,1.1,0.3c0,0,0,0,0.1,0c0.1,0.1,0.1,0.1,0.2,0.2c0,0,0,0,0,0
	c0.2,0.3,0.3,0.5,0.3,0.8c0,0.3-0.1,0.6-0.2,0.9c-0.3,0.5-0.9,0.7-1.5,0.7c-0.2,0-0.5-0.1-0.7-0.3c-0.1-0.1-0.1-0.2-0.2-0.3
	c0,0-0.1-0.1-0.2-0.1c0,0,0-0.1,0-0.1c0,0-0.1-0.1-0.1-0.1c-0.1-0.2-0.1-0.4-0.1-0.5C20.2,8,20.3,7.7,20.5,7.4
	C20.5,7.4,20.5,7.4,20.5,7.4z"/>
<path class="st0" d="M9.4,11.8c0,0-0.1,0.1-0.1,0.1C9.3,11.8,9.3,11.8,9.4,11.8z"/>
<path class="st0" d="M9.3,18c0,0,0.1,0.1,0.1,0.1C9.4,18.1,9.3,18.1,9.3,18z"/>
<path class="st0" d="M9.1,17.6c0,0,0,0.1,0.1,0.1C9.1,17.7,9.1,17.7,9.1,17.6z"/>
<path class="st0" d="M9.2,12.3c0,0,0,0.1-0.1,0.1C9.1,12.3,9.1,12.3,9.2,12.3z"/>
<path class="st0" d="M11.9,9.3c0,0-0.1,0-0.1,0.1C11.8,9.3,11.9,9.3,11.9,9.3z"/>
<path class="st0" d="M12.4,9.1c0,0-0.1,0-0.1,0.1C12.3,9.1,12.3,9.1,12.4,9.1z"/>
<path class="st0" d="M10,19.1C10.1,19.1,10.1,19.2,10,19.1C10.1,19.2,10.1,19.1,10,19.1z"/>
<path class="st0" d="M16.5,21.2C16.5,21.2,16.6,21.2,16.5,21.2C16.6,21.3,16.6,21.3,16.5,21.2z"/>
<path class="st0" d="M10.1,10.8C10.1,10.8,10.1,10.8,10.1,10.8C10.1,10.8,10.1,10.8,10.1,10.8z"/>
<path class="st0" d="M10.8,19.9C10.8,19.9,10.9,19.9,10.8,19.9C10.9,19.9,10.8,19.9,10.8,19.9z"/>
<path class="st0" d="M10.9,10C10.9,10,10.8,10.1,10.9,10C10.8,10.1,10.9,10,10.9,10z"/>
<path class="st0" d="M8.7,13.5C8.7,13.5,8.7,13.5,8.7,13.5C8.7,13.5,8.7,13.5,8.7,13.5z"/>
<path class="st0" d="M13.6,8.7C13.5,8.7,13.5,8.7,13.6,8.7C13.5,8.7,13.5,8.7,13.6,8.7z"/>
<path class="st0" d="M22.6,7.1C22.6,7.1,22.6,7.1,22.6,7.1C22.6,7.1,22.6,7.1,22.6,7.1z"/>
<path class="st0" d="M22.9,7.4C22.9,7.4,22.9,7.4,22.9,7.4C22.9,7.4,22.9,7.4,22.9,7.4z"/>
<path class="st0" d="M16.6,21.2C16.6,21.2,16.7,21.2,16.6,21.2C16.7,21.2,16.7,21.2,16.6,21.2C16.6,21.2,16.6,21.2,16.6,21.2z"/>
<path class="st0" d="M13.4,8.7C13.4,8.8,13.3,8.8,13.4,8.7C13.3,8.8,13.4,8.8,13.4,8.7z"/>
<path class="st0" d="M12.3,20.8C12.3,20.9,12.3,20.9,12.3,20.8C12.3,20.9,12.3,20.9,12.3,20.8z"/>
<path class="st0" d="M11.9,20.7C11.9,20.7,11.9,20.6,11.9,20.7C11.9,20.6,11.9,20.7,11.9,20.7C11.9,20.7,11.9,20.7,11.9,20.7z"/>
<path class="st0" d="M20.5,7.4C20.5,7.4,20.5,7.4,20.5,7.4C20.5,7.4,20.5,7.4,20.5,7.4z"/>
<path class="st0" d="M8.8,13.3C8.8,13.3,8.8,13.3,8.8,13.3C8.8,13.3,8.8,13.3,8.8,13.3C8.8,13.3,8.8,13.3,8.8,13.3z"/>
<path class="st0" d="M9,17.2C9,17.2,9,17.3,9,17.2C9,17.3,9,17.2,9,17.2z"/>
<path class="st0" d="M9,17.4C9,17.4,9,17.4,9,17.4C9,17.4,9,17.4,9,17.4z"/>
<path class="st0" d="M9.1,17.5C9.1,17.5,9.1,17.5,9.1,17.5C9.1,17.5,9.1,17.5,9.1,17.5z"/>
<path class="st0" d="M20.8,17.7C20.8,17.7,20.8,17.7,20.8,17.7C20.8,17.7,20.8,17.7,20.8,17.7z"/>
<path class="st0" d="M9.4,18.2C9.4,18.2,9.4,18.2,9.4,18.2C9.4,18.2,9.4,18.2,9.4,18.2z"/>
<path class="st0" d="M20.6,18.2C20.6,18.2,20.6,18.2,20.6,18.2C20.6,18.2,20.6,18.2,20.6,18.2z"/>
<path class="st0" d="M20.5,18.4C20.5,18.4,20.5,18.4,20.5,18.4C20.5,18.4,20.5,18.4,20.5,18.4z"/>
<path class="st0" d="M19.4,19.7C19.4,19.7,19.4,19.7,19.4,19.7C19.4,19.7,19.4,19.7,19.4,19.7z"/>
<path class="st0" d="M10.8,19.8C10.8,19.8,10.8,19.9,10.8,19.8C10.8,19.9,10.8,19.8,10.8,19.8z"/>
<path class="st0" d="M9,12.7C9,12.7,9,12.7,9,12.7C9,12.7,9,12.7,9,12.7z"/>
<path class="st0" d="M18.4,20.4C18.5,20.4,18.5,20.4,18.4,20.4C18.5,20.4,18.5,20.4,18.4,20.4z"/>
<path class="st0" d="M11.6,20.5C11.6,20.5,11.6,20.5,11.6,20.5C11.6,20.5,11.6,20.5,11.6,20.5z"/>
<path class="st0" d="M11.8,20.5C11.8,20.6,11.8,20.6,11.8,20.5C11.8,20.6,11.8,20.6,11.8,20.5z"/>
<path class="st0" d="M11.8,20.6C11.8,20.6,11.8,20.6,11.8,20.6C11.8,20.6,11.8,20.6,11.8,20.6z"/>
<path class="st0" d="M9,12.6C9,12.6,9,12.6,9,12.6C9,12.6,9,12.6,9,12.6z"/>
<path class="st0" d="M18,20.7C18,20.7,18,20.7,18,20.7C18,20.7,18,20.7,18,20.7z"/>
<path class="st0" d="M9.1,12.5C9.1,12.5,9.1,12.5,9.1,12.5C9.1,12.5,9.1,12.5,9.1,12.5z"/>
<path class="st0" d="M12.5,20.9C12.5,20.9,12.5,20.9,12.5,20.9C12.5,20.9,12.5,20.9,12.5,20.9z"/>
<path class="st0" d="M12.6,21C12.6,21,12.6,21,12.6,21C12.6,21,12.6,21,12.6,21z"/>
<path class="st0" d="M12.7,21C12.7,21,12.7,21,12.7,21C12.7,21,12.7,21,12.7,21z"/>
<path class="st0" d="M11.7,9.5C11.6,9.5,11.6,9.5,11.7,9.5C11.6,9.5,11.6,9.5,11.7,9.5z"/>
<path class="st0" d="M11.8,9.4C11.8,9.4,11.8,9.4,11.8,9.4C11.8,9.4,11.8,9.4,11.8,9.4z"/>
<path class="st0" d="M11.8,9.4C11.8,9.4,11.8,9.4,11.8,9.4C11.8,9.4,11.8,9.4,11.8,9.4z"/>
<path class="st0" d="M19.1,15.9C19.1,15.9,19.1,15.8,19.1,15.9C19.1,15.8,19.1,15.9,19.1,15.9z"/>
<path class="st0" d="M18.8,16.7C18.8,16.7,18.8,16.7,18.8,16.7C18.8,16.7,18.8,16.7,18.8,16.7z"/>
<path class="st0" d="M18.2,17.8C18.2,17.7,18.2,17.7,18.2,17.8C18.2,17.7,18.2,17.7,18.2,17.8z"/>
<path class="st0" d="M17.8,18.1C17.8,18.1,17.8,18.1,17.8,18.1C17.8,18.1,17.8,18.1,17.8,18.1z"/>
<path class="st0" d="M17,18.7C17,18.7,17,18.7,17,18.7C17,18.7,17,18.7,17,18.7z"/>
<path class="st0" d="M11.5,12.8C11.4,12.8,11.4,12.8,11.5,12.8C11.4,12.8,11.4,12.8,11.5,12.8z"/>
<path class="st0" d="M11.9,20.6C11.9,20.6,11.9,20.6,11.9,20.6C11.9,20.6,11.9,20.6,11.9,20.6C11.9,20.6,11.9,20.6,11.9,20.6z"/>
<path class="st0" d="M11,13.9C11,13.9,11,13.9,11,13.9C11,13.9,11,13.9,11,13.9z"/>
</svg>
