<?xml version="1.0" encoding="utf-8"?>
<!-- Generator: Adobe Illustrator 27.6.1, SVG Export Plug-In . SVG Version: 6.00 Build 0)  -->
<svg version="1.1" id="Layer_1" xmlns="http://www.w3.org/2000/svg" xmlns:xlink="http://www.w3.org/1999/xlink" x="0px" y="0px"
	 width="30px" height="30px" viewBox="0 0 30 30" style="enable-background:new 0 0 30 30;" xml:space="preserve">
<style type="text/css">
	.st0{fill:#FFFFFF;}
</style>
<path class="st0" d="M6.6,21c0.1-1.9,0.2-3.7,0.2-5.6c0-0.1,0-0.2-0.2-0.3c-0.4-0.1-0.7-0.3-1-0.5c-0.5-0.3-0.9-0.7-1.2-1.2
	c-0.4-0.5-0.6-1-0.8-1.6C3.4,11,3.4,10.1,3.5,9.3c0-0.6,0.1-1.2,0.2-1.7c0-0.3,0.1-0.6,0.2-0.9C4,6.3,4.1,5.8,4.3,5.4
	C4.4,5,4.6,4.6,4.7,4.3C4.8,4.1,4.9,3.8,5,3.7c0.2-0.4,0.5-0.7,0.8-1.1C6,2.3,6.2,2,6.5,1.8c0.3-0.2,0.6-0.4,0.9-0.5
	c0.1-0.1,0.3-0.1,0.4-0.2C8.2,1,8.6,0.9,8.9,1C9.3,1,9.7,1.1,10,1.3c0.3,0.1,0.6,0.3,0.8,0.5c0.4,0.3,0.7,0.7,1,1
	c0.2,0.3,0.4,0.6,0.6,0.9c0.2,0.3,0.4,0.7,0.5,1.1c0.2,0.5,0.4,1.1,0.5,1.6c0.4,1.4,0.5,2.8,0.5,4.2c0,0.4-0.1,0.8-0.2,1.2
	c-0.1,0.3-0.2,0.5-0.3,0.8c-0.2,0.3-0.3,0.6-0.5,0.8c-0.2,0.4-0.5,0.6-0.8,0.9c-0.4,0.3-0.8,0.5-1.2,0.8c-0.1,0-0.2,0.1-0.3,0.1
	c0,0.1,0,0.2,0,0.3c0.1,2.2,0.2,4.4,0.3,6.7c0.1,1.5,0.1,2.9,0.2,4.4c0,0.5-0.1,0.9-0.4,1.3c-0.5,0.9-1.6,1.3-2.5,1.1
	c-0.7-0.1-1.2-0.5-1.5-1.1c-0.2-0.4-0.3-0.8-0.3-1.3c0.1-1.5,0.1-3.1,0.2-4.6C6.6,21.6,6.6,21.3,6.6,21C6.6,21,6.6,21,6.6,21z"/>
<path class="st0" d="M20.1,20.1c0.1-2.1,0.2-4.3,0.3-6.4c0-0.2-0.1-0.3-0.2-0.4c-0.3-0.1-0.5-0.3-0.8-0.5c-0.2-0.2-0.4-0.4-0.6-0.7
	c-0.4-0.5-0.7-1.1-0.8-1.8c-0.1-0.4-0.1-0.8-0.1-1.2c0-1.7,0.1-3.4,0.2-5.1C18,3,18,2.1,18,1.1c0-0.1,0-0.2,0.2-0.2
	c0.4,0,0.8,0,1.2,0c0.1,0,0.1,0,0.1,0.1c0.1,2.7,0.2,5.5,0.3,8.2c0,0.2,0,0.2,0.2,0.2c0.3,0,0.5,0,0.8,0c0.1,0,0.2,0,0.2-0.2
	c0-1.2,0.1-2.3,0.1-3.5c0.1-1.6,0.1-3.2,0.2-4.8c0-0.1,0-0.1,0.1-0.1c0.5,0,1,0,1.6,0C23,0.9,23,1,23,1c0,1,0.1,2,0.1,3.1
	c0.1,1.7,0.1,3.5,0.2,5.2c0,0.1,0.1,0.2,0.2,0.2c0.3,0,0.6,0,0.9,0c0.1,0,0.2,0,0.2-0.2c0-1.1,0.1-2.3,0.1-3.4
	c0.1-1.6,0.1-3.2,0.2-4.8c0-0.1,0-0.1,0.1-0.1c0.4,0,0.8,0,1.2,0c0.1,0,0.2,0,0.2,0.2c0,1,0.1,2.1,0.1,3.1c0.1,1.7,0.1,3.4,0.2,5.1
	c0,0.5-0.1,1-0.2,1.5c-0.2,0.5-0.5,1-0.8,1.4c-0.4,0.5-0.9,0.9-1.5,1.1c0,0-0.1,0.1-0.1,0.2c0,0.8,0.1,1.7,0.1,2.5
	c0,1.1,0.1,2.1,0.1,3.2c0.1,1.6,0.1,3.2,0.2,4.8c0,0.9,0.1,1.8,0.1,2.7c0,0.6-0.2,1.1-0.6,1.5c-0.6,0.6-1.3,0.9-2.1,0.8
	c-0.4-0.1-0.8-0.2-1.2-0.5c-0.3-0.3-0.6-0.6-0.7-1.1c-0.1-0.3-0.1-0.6-0.1-0.9c0.1-1.6,0.1-3.3,0.2-4.9C20,21.2,20.1,20.7,20.1,20.1
	C20.1,20.1,20.1,20.1,20.1,20.1z"/>
</svg>
