<?xml version="1.0" encoding="utf-8"?>
<!-- Generator: Adobe Illustrator 27.6.1, SVG Export Plug-In . SVG Version: 6.00 Build 0)  -->
<svg version="1.1" id="Layer_1" xmlns="http://www.w3.org/2000/svg" xmlns:xlink="http://www.w3.org/1999/xlink" x="0px" y="0px"
	 width="30px" height="17.4px" viewBox="0 0 30 17.4" style="enable-background:new 0 0 30 17.4;" xml:space="preserve">
<style type="text/css">
	.st0{fill:#D71969;}
</style>
<g>
	<path class="st0" d="M19.3,0.8c2.1,0,4.2,0,6.3,0c0.6,0,1.2,0.1,1.7,0.5c0.6,0.5,1,1.1,1,1.9c0,2.7,0,5.4,0,8.1
		c0,0.6-0.3,1.2-0.7,1.6c-0.3,0.3-0.6,0.5-1,0.7c-0.3,0.1-0.6,0.1-0.9,0.1c-2.1,0-4.2,0-6.3,0c-0.2,0-0.3,0.1-0.3,0.3
		c-0.1,1.1-1,1.9-2.1,1.8c-0.3,0-0.5-0.2-0.7-0.3c-0.1-0.1-0.1,0-0.2,0c-0.5,0.7-1.5,1-2.4,0.5c-0.2-0.1-0.3-0.2-0.4-0.4
		c-0.1-0.1-0.2-0.1-0.3,0c-0.7,0.4-1.6,0-2-0.5C11,15,10.9,15,10.9,15c-0.3,0.3-0.7,0.5-1.1,0.8c-0.7,0.5-1.5,0.8-2.3,0.9
		c-1.4,0.1-2.9,0-4.3,0c-0.4,0-0.6-0.3-0.6-0.7c0-0.2,0.3-0.4,0.5-0.4c1.4,0,2.7,0,4.1,0c0.4,0,0.8-0.1,1.2-0.3
		c0.7-0.3,1.3-0.8,1.9-1.3c0.5-0.4,1-0.7,1.5-1.1c0.3-0.2,0.6-0.5,0.9-0.6c0.5-0.3,1.1-0.6,1.6-0.8c0.5-0.2,0.9-0.4,1.3-0.8
		c0.4-0.5,0.3-1.1-0.2-1.4c-0.4-0.3-0.8-0.2-1.2,0c-0.5,0.2-1,0.4-1.4,0.7c-0.4,0.2-0.9,0.4-1.3,0.6c-0.4,0.2-0.9,0.4-1.3,0.6
		c-0.3,0.1-0.6,0.3-0.9,0.4c-0.3,0.1-0.5,0.2-0.8,0.4C8.4,12.1,8,12,8,11.8c-0.1-0.3,0-0.6,0.3-0.7c0.5-0.2,0.9-0.4,1.4-0.7
		c0.1-0.1,0.3-0.2,0.5-0.2c0.2,0,0.2-0.1,0.2-0.3c0-1.6,0-3.2,0-4.8c0-0.2-0.1-0.2-0.2-0.2c-0.6,0-1.1,0-1.7,0.1
		C8,5.1,7.6,5.3,7.2,5.6C6.7,6,6.1,6.4,5.6,6.8c-0.5,0.3-0.9,0.7-1.4,1C3.9,8,3.7,8.2,3.4,8.4C3.1,8.6,2.8,8.5,2.6,8.2
		C2.5,8,2.6,7.7,2.8,7.5C3.4,7.1,4,6.6,4.7,6.2C5.4,5.7,6,5.1,6.8,4.7c0.7-0.5,1.5-0.8,2.4-0.8c0.3,0,0.6,0,0.9,0
		c0.2,0,0.2,0,0.2-0.2c0-0.4,0-0.9,0.2-1.3c0.2-0.4,0.5-0.8,0.9-1.1c0.5-0.4,1.1-0.5,1.7-0.5C15.2,0.8,17.2,0.8,19.3,0.8z
		 M14.7,12.6c0.1,0,0.1,0,0.2,0c3.7,0,7.3,0,11,0c0.2,0,0.5-0.1,0.7-0.2c0.6-0.3,0.8-0.8,0.8-1.5c0-1.3,0-2.6,0-3.8
		c0-0.2-0.1-0.3-0.3-0.3c-5.1,0-10.2,0-15.3,0c-0.1,0-0.2,0-0.2,0c-0.1,0-0.1,0-0.1,0.1c0,0.8,0,1.6,0,2.5c0,0.1,0,0.1,0.2,0.1
		c0.3-0.1,0.6-0.3,1-0.5c0.4-0.2,0.9-0.4,1.3-0.6c0.7-0.4,1.3-0.5,2-0.1c0.5,0.2,0.9,0.6,1.1,1.2c0.3,0.9,0,1.7-0.7,2.3
		C15.6,12.1,15.1,12.4,14.7,12.6z M19.3,3.9C19.3,3.9,19.3,3.9,19.3,3.9c2.5,0,5,0,7.5,0c0.5,0,0.5,0,0.5-0.5c0-0.9-0.7-1.6-1.6-1.6
		c-4.3,0-8.5,0-12.8,0c-0.4,0-0.7,0.1-0.9,0.3c-0.5,0.4-0.6,0.9-0.6,1.5c0,0.2,0.1,0.3,0.3,0.3C14.1,3.9,16.7,3.9,19.3,3.9z
		 M19.3,5.9c2.1,0,4.2,0,6.3,0c0.5,0,1,0,1.5,0c0.2,0,0.2,0,0.2-0.2c0-0.2,0-0.4,0-0.5c0-0.2-0.1-0.3-0.3-0.3c-1,0-2,0-3,0
		c-4.1,0-8.3,0-12.4,0c-0.2,0-0.3,0-0.3,0.3c0,0.2,0,0.3,0,0.5c0,0.2,0.1,0.3,0.3,0.3C14.1,5.9,16.7,5.9,19.3,5.9z M13.9,14.3
		c0,0.3,0,0.6,0.3,0.8c0.4,0.2,0.9,0.1,1.1-0.3c0.1-0.3,0.1-0.7,0.1-1c0-0.2-0.1-0.2-0.2-0.2c-0.3,0-0.5,0-0.8,0
		C13.9,13.6,13.9,13.6,13.9,14.3z M17.2,13.6c-0.1,0-0.3,0-0.4,0c-0.5,0-0.5,0-0.4,0.5c0.1,0.4,0.4,0.6,0.8,0.6
		c0.5,0,0.7-0.3,0.7-0.7c0-0.3-0.1-0.3-0.3-0.3C17.6,13.7,17.4,13.6,17.2,13.6z M12.9,14c0-0.1,0-0.2,0-0.3c0-0.1-0.1-0.1-0.2-0.1
		c-0.3,0.2-0.5,0.4-0.8,0.6c-0.1,0.1-0.1,0.1,0,0.2c0.1,0.2,0.3,0.2,0.5,0.2c0.2,0,0.4-0.1,0.4-0.4C12.9,14.2,12.8,14.1,12.9,14z"/>
	<path class="st0" d="M23.7,11.1c-0.5,0-1,0-1.5,0c-0.4,0-0.6-0.2-0.6-0.5c0-0.3,0.2-0.6,0.6-0.6c0.3,0,0.7,0,1,0c0.6,0,1.2,0,1.9,0
		c0.2,0,0.4,0.1,0.5,0.2c0.1,0.1,0.2,0.3,0.1,0.4c-0.1,0.2-0.2,0.4-0.5,0.4C24.7,11.1,24.2,11.1,23.7,11.1z"/>
	<path class="st0" d="M23.7,9.5c-0.6,0-1.1,0-1.7,0c-0.2,0-0.3-0.2-0.4-0.4c0-0.2,0.1-0.4,0.3-0.5c0.1,0,0.2-0.1,0.3-0.1
		c0.9,0,1.9,0,2.8,0c0.2,0,0.4,0.1,0.6,0.3c0.2,0.3,0.1,0.7-0.3,0.7C24.8,9.6,24.2,9.5,23.7,9.5z"/>
</g>
</svg>
