<?xml version="1.0" encoding="utf-8"?>
<!-- Generator: Adobe Illustrator 27.6.1, SVG Export Plug-In . SVG Version: 6.00 Build 0)  -->
<svg version="1.1" id="Layer_1" xmlns="http://www.w3.org/2000/svg" xmlns:xlink="http://www.w3.org/1999/xlink" x="0px" y="0px"
	 width="30px" height="30px" viewBox="0 0 30 30" style="enable-background:new 0 0 30 30;" xml:space="preserve">
<style type="text/css">
	.st0{fill:#FFFFFF;}
</style>
<g>
	<path class="st0" d="M17.1,27.2c0-0.1,0-0.2-0.1-0.3c0-0.1,0-0.1,0-0.2c0-0.1,0-0.1,0-0.2c0-0.4,0-0.8,0-1.2c-0.2,0-0.3,0-0.5,0
		c-0.7,0-1.3,0-2,0c-0.5,0-1.1,0-1.6-0.1c-0.5-0.1-1.1-0.2-1.5-0.7c0-0.1-0.1-0.1-0.1-0.2c-0.2-0.2-0.4-0.4-0.6-0.6
		c0-0.1-0.1-0.1-0.1-0.2c-0.2-0.4-0.4-0.7-0.4-1.2c0,0-0.1-0.1-0.1-0.1c0,0,0-0.1,0-0.1c0,0,0.1-0.1,0.1-0.1c0-0.8,0-1.6,0-2.4
		c0-0.1,0-0.1,0-0.2c0-0.1,0.1-0.2,0.1-0.4c0,0,0.1-0.1,0.1-0.1c0.1-0.1,0.1-0.1,0.2-0.2c0,0,0,0,0.1,0c0.5-0.4,1.4-0.3,1.7,0.5
		c0,0,0,0,0,0.1c0,0.9,0.1,1.8,0.1,2.7c0,0.4,0.6,1,1,1c1.2,0,2.3,0,3.5,0c0-0.1,0-0.2,0-0.3c0-5.4,0-10.7,0-16.1
		c0-0.4,0-0.8,0.2-1.2c0.3-0.7,0.8-1.1,1.5-1.3c0,0,0.1,0,0.1,0c0,0,0,0,0-0.1c0,0-0.1,0-0.1,0c-1.7,0-3.3,0-5,0
		c-0.6,0-1.1,0.5-1.1,1.1c0,0.3,0,0.7,0,1c-0.1,0.8-0.3,1-1,1.2c-0.4,0.1-0.8-0.2-1-0.4c-0.1-0.1-0.1-0.4-0.1-0.6c0-0.6,0-1.2,0-1.8
		c0-0.3,0.1-0.5,0.2-0.7c0,0,0,0,0-0.1c0.2-0.5,0.6-1,1.1-1.3c0.6-0.5,1.3-0.7,2.1-0.7c3.9,0,7.8,0,11.6,0c0.6,0,1.3,0.1,1.8,0.4
		c0.2,0.1,0.3,0.3,0.4,0.4c0.1,0.1,0.1,0.2,0.2,0.3c0,0.1,0.1,0.1,0.1,0.2c0,0.1,0,0.1,0,0.2c0.2,0.4,0.2,0.7,0.2,1.1
		c0,6.4,0,12.8,0,19.3c0,0.1-0.1,0.3-0.1,0.5c0.1,0.2,0.1,0.5-0.1,0.8c-0.2,0.5-0.6,1-1.1,1.2c-0.4,0.2-0.8,0.3-1.2,0.4
		c-1.9,0.6-3.7,1.2-5.6,1.9c-0.5,0.2-1.1,0.2-1.6,0.1c-0.3-0.1-0.5-0.3-0.8-0.6c-0.2-0.2-0.3-0.5-0.5-0.7
		C17.1,27.3,17.1,27.2,17.1,27.2z"/>
	<path class="st0" d="M7.6,18.6c-0.4-0.1-0.6-0.5-0.8-0.9c0,0,0-0.1,0-0.1c0.2-0.7,0.1-1.3,0.1-2c0-0.5,0-1,0-1.4
		c-0.1,0-0.2,0-0.2,0c-1.5,0-2.9,0-4.4,0c-0.4,0-1-0.5-1-0.9c0-0.3-0.1-0.5,0-0.8C1.6,12.3,1.9,12,2.2,12c1.5,0,3,0,4.5,0
		c0.1,0,0.2,0,0.3,0c0-0.7,0-1.4,0-2.1c0-0.5,0-1,0-1.5C6.9,8.3,7,8.2,7,8.1c0,0,0-0.1,0.1-0.1c0.2-0.5,0.8-0.4,1.1-0.6
		c0.2,0.1,0.4,0.3,0.6,0.4c0.9,1,1.9,1.9,2.8,2.9c0.5,0.5,1.1,1.1,1.6,1.6c0.4,0.4,0.3,0.9,0.1,1.4c0,0,0,0,0,0
		c-0.7,0.7-1.4,1.4-2.2,2.1c-0.6,0.6-1.2,1.2-1.8,1.8c-0.3,0.3-0.7,0.6-1,0.9c0,0,0,0,0,0c-0.2,0-0.4,0-0.6,0
		C7.7,18.6,7.7,18.6,7.6,18.6z"/>
	<path class="st0" d="M28,3.2c0-0.1-0.1-0.1-0.1-0.2C27.9,3.1,27.9,3.2,28,3.2z"/>
	<path class="st0" d="M10.7,23.6c0,0.1,0.1,0.1,0.1,0.2C10.8,23.8,10.7,23.7,10.7,23.6z"/>
	<path class="st0" d="M10.3,19.5c0,0.1,0,0.1,0,0.2C10.2,19.7,10.2,19.6,10.3,19.5z"/>
	<path class="st0" d="M17,26.7c0,0.1,0,0.1,0,0.2C17,26.8,17,26.8,17,26.7C17,26.7,17,26.7,17,26.7z"/>
	<path class="st0" d="M17,26.7C17,26.7,17,26.7,17,26.7c-0.1,0,0-0.1,0-0.2C17,26.6,17,26.7,17,26.7z"/>
	<path class="st0" d="M10.5,19.1c0,0-0.1,0.1-0.1,0.1C10.4,19.2,10.5,19.1,10.5,19.1z"/>
	<path class="st0" d="M18.6,4.2c0,0,0.1,0,0.1,0c0,0,0,0,0,0.1C18.7,4.2,18.7,4.2,18.6,4.2C18.6,4.2,18.6,4.2,18.6,4.2z"/>
	<path class="st0" d="M10.2,22.4c0,0,0.1,0.1,0.1,0.1C10.3,22.4,10.3,22.4,10.2,22.4z"/>
	<path class="st0" d="M11.4,24.4c0,0.1,0.1,0.1,0.1,0.2C11.4,24.5,11.4,24.5,11.4,24.4z"/>
	<path class="st0" d="M17.1,27.2c0,0.1,0.1,0.1,0.1,0.2C17.1,27.3,17.1,27.2,17.1,27.2z"/>
	<path class="st0" d="M10.3,22.2c0,0-0.1,0.1-0.1,0.1C10.3,22.2,10.3,22.2,10.3,22.2z"/>
	<path class="st0" d="M7.6,18.6c0,0,0.1,0,0.1,0C7.7,18.6,7.7,18.6,7.6,18.6z"/>
	<path class="st0" d="M10.6,3.9C10.6,3.9,10.6,3.9,10.6,3.9C10.6,3.9,10.6,3.9,10.6,3.9z"/>
	<path class="st0" d="M13.4,13.8C13.4,13.8,13.4,13.8,13.4,13.8C13.4,13.8,13.4,13.8,13.4,13.8z"/>
	<path class="st0" d="M8.4,18.7C8.4,18.7,8.4,18.7,8.4,18.7C8.4,18.7,8.4,18.7,8.4,18.7C8.4,18.7,8.4,18.7,8.4,18.7z"/>
	<path class="st0" d="M10.7,18.9C10.7,18.9,10.7,18.9,10.7,18.9C10.7,18.9,10.7,18.9,10.7,18.9z"/>
	<path class="st0" d="M12.5,19.4C12.5,19.4,12.4,19.4,12.5,19.4C12.4,19.4,12.5,19.4,12.5,19.4z"/>
</g>
</svg>
