<?xml version="1.0" encoding="utf-8"?>
<!-- Generator: Adobe Illustrator 27.7.0, SVG Export Plug-In . SVG Version: 6.00 Build 0)  -->
<svg version="1.1" id="Layer_1" xmlns="http://www.w3.org/2000/svg" xmlns:xlink="http://www.w3.org/1999/xlink" x="0px" y="0px"
	 width="30px" height="30px" viewBox="0 0 30 30" style="enable-background:new 0 0 30 30;" xml:space="preserve">
<style type="text/css">
	.st0{fill:#D70567;}
</style>
<g>
	<path class="st0" d="M8,26.8c-0.1-0.1-0.2-0.1-0.3-0.2H7.6c-0.2-0.1-0.4-0.2-0.5-0.3H7c-0.1-0.1-0.2-0.1-0.3-0.2H6.6
		C6.5,26,6.4,26,6.3,25.9H6.2c-0.2-0.1-0.4-0.2-0.5-0.3H5.6c-0.2-0.1-0.4-0.3-0.6-0.4H4.9c-0.4-0.3-0.8-0.6-1.2-0.9
		c-0.1-0.1-0.2-0.3-0.3-0.4s-0.1-0.2-0.2-0.3v-0.1l0,0l0,0c-0.3-0.3-0.2-0.7-0.2-1c0-5.2,0-10.4,0-15.6c0-0.8,0-1.7,0-2.5
		c0-1.1,0.7-2.2,1.9-2.7C5,1.5,5.3,1.4,5.7,1.5c0.1,0,0.3-0.1,0.5-0.1c4.3,0,8.5,0,12.8,0c0.2,0,0.5,0,0.7,0c0,0,0,0,0.1,0
		c0.3,0.1,0.6,0.2,0.9,0.3c0.1,0,0.1,0.1,0.2,0.1c0.5,0.4,0.8,0.9,1.1,1.4c0,0.3,0,0.5,0,0.8c0,0.4,0,0.8,0,1.3c0,0.8,0,1.7,0,2.5
		c0,0.2,0,0.3,0,0.5c0,0,0,0.1-0.1,0.1c-0.1,0.5-0.6,0.7-1,0.7c-0.5-0.1-0.8-0.5-0.8-0.9c0-1.2,0-2.4,0-3.6c0-0.2,0-0.4-0.1-0.6
		c-0.1-0.2-0.3-0.3-0.4-0.4l0,0l0,0c-0.1,0-0.2-0.1-0.3-0.1c0,0,0-0.1-0.1-0.1c0,0,0,0-0.1,0.1c-0.1,0-0.2-0.1-0.4-0.1
		c-3.7,0-7.4,0-11.1,0c0,0-0.1,0-0.2,0C7.6,3.5,7.8,3.7,8,3.8c0.9,0.5,1.7,1,2.6,1.5c0.7,0.4,1.4,0.8,2.1,1.2c0.1,0,0.1,0,0.2,0.1
		H13c0.2,0.1,0.4,0.2,0.5,0.4c0.8,0.7,1.1,1.6,1.1,2.7c0,4.1,0,8.2,0,12.3c0,0.1,0,0.2,0,0.3c0.1,0,0.2,0,0.2,0c1.4,0,2.7,0,4.1,0
		c0.1,0,0.3-0.1,0.4-0.1c0.2,0,0.3,0,0.3-0.2c0.2-0.2,0.3-0.4,0.2-0.7l0.1-0.1c0-1.1,0-2.1,0-3.2c0-0.3,0.1-0.5,0.3-0.7
		c0,0,0,0,0.1,0c0.4-0.3,1.1-0.2,1.4,0.2c0.1,0.1,0.1,0.2,0.2,0.2v0.1c0,1.1,0,2.2,0,3.3c0,0.7-0.1,1.4-0.6,1.9
		c-0.2,0.2-0.4,0.4-0.6,0.6c0,0,0,0-0.1,0c-0.3,0.3-0.7,0.5-1.1,0.5c-1.6,0-3.2,0.1-4.8,0.1l0,0c0,0.4,0,0.8,0,1.3
		c0,0.8-0.3,1.6-0.9,2.2c-0.5,0.5-1.1,0.8-1.7,0.9c-0.5,0.1-1.1,0-1.5-0.2h-0.1l0,0l0,0l0,0c0,0,0,0-0.1,0c0,0-0.1,0-0.1-0.1
		c-0.1-0.1-0.2-0.1-0.3-0.2H9.9c-0.2-0.1-0.4-0.2-0.5-0.3H9.3C8.9,27.4,8.5,27.1,8,26.8C8,26.9,8,26.9,8,26.8z"/>
	<path class="st0" d="M23.8,13.8c-0.1,0-0.2,0-0.2,0c-2.3,0-4.6,0-6.9,0c-0.4,0-0.7-0.2-0.9-0.6c-0.2-0.4-0.1-0.7,0.1-1
		s0.5-0.4,0.8-0.4c2.2,0,4.4,0,6.6,0c0.1,0,0.2,0,0.3,0h0.1c0,0,0,0,0-0.1c-0.4-0.4-0.8-0.7-1.1-1.2c-0.4-0.6,0-1.3,0.5-1.5
		c0.3-0.1,0.7,0,0.9,0.2c1,1,1.9,1.9,2.9,2.9c0.3,0.4,0.2,1-0.2,1.4c-0.9,0.9-1.8,1.8-2.7,2.7c-0.5,0.5-1.2,0.3-1.5-0.3
		c-0.3-0.5,0-0.9,0.3-1.2C23.2,14.4,23.5,14.2,23.8,13.8C23.8,13.9,23.8,13.8,23.8,13.8z"/>
</g>
</svg>
