<?xml version="1.0" encoding="utf-8"?>
<!-- Generator: Adobe Illustrator 27.6.1, SVG Export Plug-In . SVG Version: 6.00 Build 0)  -->
<svg version="1.1" id="Layer_1" xmlns="http://www.w3.org/2000/svg" xmlns:xlink="http://www.w3.org/1999/xlink" x="0px" y="0px"
	 width="16px" height="16px" viewBox="0 0 16 16" style="enable-background:new 0 0 16 16;" xml:space="preserve">
<style type="text/css">
	.st0{fill:#FFFFFF;}
</style>
<path class="st0" d="M5,15c6,0,9.3-5,9.3-9.3c0-0.1,0-0.3,0-0.4c0.6-0.5,1.2-1,1.6-1.7C15.3,3.9,14.7,4,14,4.1
	c0.7-0.4,1.2-1.1,1.4-1.8C14.8,2.7,14,3,13.3,3.1C12.1,1.8,10,1.7,8.7,3C8,3.7,7.6,4.9,7.9,6C5.2,5.9,2.8,4.7,1.1,2.6
	C0.2,4.1,0.7,6,2.1,7c-0.5,0-1-0.2-1.5-0.4l0,0c0,1.6,1.1,2.9,2.6,3.2C3,9.9,2.7,10,2.4,10C2.2,10,2,10,1.8,9.9
	c0.4,1.3,1.7,2.3,3.1,2.3c-1.2,0.9-2.6,1.4-4.1,1.4c-0.3,0-0.5,0-0.8,0C1.5,14.5,3.2,15,5,15z"/>
</svg>
